<svg xmlns="http://www.w3.org/2000/svg" xmlns:xlink="http://www.w3.org/1999/xlink" preserveAspectRatio="xMidYMid meet" version="1.0" viewBox="27.4 11.2 78.6 102.1" zoomAndPan="magnify" style="fill: rgb(255, 205, 150);" original_string_length="21006" width="146.80509500976078px" height="189.53709449617px"><g id="__id0_s021o3kc1"><path d="m 67.080937,112.8414 c -3.053036,-0.38296 -6.511949,-1.89546 -8.972338,-3.92337 -2.629904,-2.16764 -4.710491,-5.64965 -5.413922,-9.060583 -0.305377,-1.480769 -0.276166,-3.991794 0.06452,-5.546602 0.811343,-3.702731 3.037131,-6.76795 5.982529,-8.23877 1.433448,-0.715809 2.412091,-0.964708 4.075633,-1.036557 1.836386,-0.07931 2.944854,0.136049 4.36898,0.848847 3.512709,1.758166 4.974172,5.665606 3.3589,8.980518 -1.321417,2.711853 -4.327838,3.778103 -6.858947,2.432577 -1.285036,-0.683118 -2.04715,-1.912884 -2.051784,-3.310809 -0.0064,-1.92838 1.085408,-3.210435 2.753008,-3.232737 1.175828,-0.01572 2.175212,0.779558 2.175212,1.730975 0,0.832861 -0.995265,1.324581 -1.69252,0.836205 -0.246995,-0.173002 -0.278913,-0.167581 -0.405455,0.06887 -0.329617,0.615895 0.251842,1.478341 1.145515,1.699081 1.043913,0.257849 2.114619,-0.189866 2.732333,-1.142523 1.515636,-2.337457 -0.279574,-5.598965 -3.354359,-6.094145 -2.951302,-0.475293 -5.776924,1.615554 -6.644774,4.916866 -0.29228,1.11184 -0.288033,3.2413 0.0087,4.376198 0.698433,2.670999 2.648572,5.055739 5.190338,6.347039 1.373121,0.69759 2.479194,0.99299 4.006378,1.06997 5.648749,0.28473 9.600276,-4.47459 8.695067,-10.472559 -0.347529,-2.302743 -0.934595,-3.706993 -3.824659,-9.148495 -1.659917,-3.125344 -2.525362,-5.605902 -2.527354,-7.243954 l -8.63e-4,-0.710476 0.462274,0.199966 c 0.832673,0.360188 0.880873,0.327124 0.34239,-0.234868 C 69.7918,76.008624 69.378,74.295343 69.677812,72.737346 l 0.09489,-0.493093 -0.314152,0.36982 c -0.172784,0.203401 -0.492848,0.729422 -0.711254,1.168936 -0.370078,0.744736 -0.396601,0.883154 -0.389747,2.034008 0.0057,0.950775 0.06649,1.383097 0.264376,1.879061 l 0.257021,0.644169 -0.510922,-0.346274 C 67.107453,77.139631 64.648867,75.783471 61.425735,74.164598 57.088605,71.9862 56.757506,71.470275 56.316854,66.203867 56.180703,64.576661 55.999405,62.801527 55.91397,62.259125 l -0.155335,-0.986185 -0.07888,1.047822 c -0.04338,0.576302 -0.140412,1.963125 -0.21562,3.081829 -0.232027,3.451356 -0.779325,6.08129 -1.777922,8.543466 -1.675131,4.130261 -4.611433,7.28418 -8.010302,8.603965 -1.956443,0.759689 -3.929587,0.927945 -5.668019,0.483329 -1.263508,-0.323151 -2.063405,-0.771199 -2.975875,-1.666882 -2.174803,-2.134791 -2.30057,-5.51447 -0.275691,-7.408507 0.87122,-0.814925 1.550165,-1.084234 2.74794,-1.089997 1.064658,-0.0051 1.582501,0.183382 2.404982,0.875455 0.737699,0.620733 1.181695,2.026992 0.880653,2.789269 -0.07736,0.195888 -0.127848,0.177513 -0.453611,-0.165097 -1.040232,-1.094029 -2.326315,-0.933628 -2.986115,0.37243 -0.627408,1.241937 -0.174222,2.700894 1.06531,3.429586 0.497277,0.292337 0.698623,0.333949 1.615882,0.333949 1.213163,0 1.871755,-0.253336 2.649184,-1.019041 1.193514,-1.175516 1.681212,-2.490657 1.679229,-4.528253 -0.0023,-2.352057 -0.828853,-4.605988 -2.358591,-6.431568 -0.975171,-1.163764 -2.067484,-1.966923 -4.681832,-3.442471 -1.878581,-1.060279 -2.294091,-1.353139 -3.216263,-2.266885 -1.706465,-1.690874 -2.230836,-2.845098 -3.001877,-6.607614 -0.683165,-3.333696 -1.376719,-5.205967 -2.606637,-7.036689 -0.311039,-0.462979 -0.593578,-0.886441 -0.627864,-0.941025 -0.03429,-0.05458 0.228691,0.121026 0.584392,0.390247 1.274906,0.964939 3.169498,1.679791 5.23169,1.973976 0.542402,0.07738 2.12338,0.221929 3.513285,0.321225 2.90429,0.207487 4.515191,0.548427 6.121488,1.295588 4.444568,2.067366 6.907243,5.944299 6.959022,10.955427 l 0.01355,1.311569 0.237188,-0.924549 c 0.282404,-1.100806 0.338484,-3.571777 0.109112,-4.807655 -0.743766,-4.00747 -3.555197,-7.280536 -7.367619,-8.577377 -1.66715,-0.567101 -3.292942,-0.727449 -5.622361,-0.55452 -3.923535,0.291271 -5.530397,0.138184 -7.365193,-0.701688 -2.655424,-1.215512 -4.519228,-4.016071 -4.837222,-7.268428 l -0.06307,-0.645044 0.760895,0.621368 c 0.930453,0.759834 2.435654,1.501832 3.612835,1.780971 1.46545,0.347494 4.208955,0.20796 7.194825,-0.365926 2.118593,-0.407195 2.630552,-0.462673 4.314562,-0.467549 3.699066,-0.01071 5.95924,0.826775 9.55358,3.539985 0.775075,0.58507 1.730111,1.226103 2.122301,1.424517 1.053499,0.532979 2.333282,0.784591 3.537794,0.695548 1.939285,-0.143361 2.884449,-0.513191 6.07998,-2.379013 3.068436,-1.791614 4.659216,-2.468498 6.940896,-2.953383 1.412617,-0.300199 3.787567,-0.30226 5.110845,-0.0044 2.013774,0.453231 4.105211,1.713374 5.400547,3.253964 0.653259,0.776945 1.536587,2.472316 1.648974,3.164876 0.03956,0.243749 0.112705,0.468388 0.162556,0.499197 0.109773,0.06784 1.04793,-1.246858 1.243074,-1.742 l 0.139521,-0.354012 0.161787,0.453385 c 0.23149,0.648722 0.649441,2.809631 0.794491,4.107723 0.31276,2.798958 0.106384,4.486855 -1.039994,8.50585 -0.8379,2.937526 -1.412467,5.59558 -1.692075,7.827847 -0.23838,1.90313 -0.201849,6.724442 0.06445,8.50585 1.004528,6.719809 3.289373,10.996333 6.884397,12.885464 2.582127,1.356869 5.712653,1.18862 7.293248,-0.391975 1.259916,-1.259916 1.491757,-3.08498 0.612619,-4.822566 -0.183628,-0.362936 -0.891628,-1.274079 -1.573333,-2.024763 -1.92362,-2.118264 -2.498003,-2.873082 -3.014077,-3.960909 -0.624044,-1.315414 -0.76583,-1.955761 -0.76646,-3.461556 -9.84e-4,-2.350439 0.66613,-4.081335 2.141451,-5.556218 1.43796,-1.437533 2.971979,-2.073719 5.022373,-2.082869 2.0541,-0.0092 3.88629,0.805971 4.93567,2.195875 0.67383,0.892474 0.89378,1.551892 0.90727,2.720046 0.01,0.844226 -0.0383,1.087588 -0.33396,1.690622 -1.03393,2.108956 -3.65082,2.730252 -5.19571,1.233555 -0.592335,-0.573846 -0.806369,-1.075158 -0.806369,-1.888664 0,-0.768159 0.328886,-1.369042 0.872599,-1.594254 0.80022,-0.33146 1.58685,-0.05548 1.94888,0.683733 0.13926,0.284354 0.14289,0.427378 0.0195,0.7686 -0.1783,0.493073 -0.13192,0.565158 0.35468,0.551323 0.76922,-0.02187 1.24218,-0.618954 1.24218,-1.568188 0,-0.903813 -0.70353,-1.825472 -1.71651,-2.248723 -0.60607,-0.253234 -1.88125,-0.15153 -2.581188,0.205867 -1.352565,0.690638 -2.107153,2.002101 -2.203884,3.830317 -0.0955,1.804938 0.325884,3.071433 1.919883,5.770324 1.121369,1.898642 1.418459,2.502459 1.740229,3.536801 1.20518,3.874159 -0.79253,8.053541 -4.554926,9.529274 -1.682658,0.659993 -3.615369,0.840275 -5.60893,0.523197 -2.573146,-0.409262 -5.476084,-1.90417 -7.715485,-3.973193 -0.916813,-0.84706 -1.010333,-0.87849 -0.367328,-0.123451 0.76883,0.902787 2.889831,2.726103 3.72949,3.206051 l 0.577605,0.330158 0.08606,0.915006 c 0.120525,1.281493 -0.01033,4.09337 -0.239396,5.144334 -1.117888,5.128882 -4.78263,9.736422 -9.500248,11.944312 -3.317909,1.55281 -7.113897,2.18786 -10.522215,1.76033 z M 91.815196,92.949525 C 87.924515,92.005579 83.064118,86.672664 80.368156,80.389628 78.75402,76.627825 77.168122,70.65811 77.162337,68.322123 c -0.0061,-2.453275 -0.590904,0.508822 -0.703307,3.562179 -0.180639,4.906916 1.102442,9.754773 3.578908,13.522167 2.017233,3.068773 5.193182,5.632154 8.520436,6.877039 0.832593,0.311513 3.091354,0.838878 3.583543,0.83667 0.25561,-0.0011 0.15471,-0.05385 -0.326721,-0.170653 z M 77.137539,62.628945 c 0.655498,-2.184473 0.851848,-3.784219 0.65033,-5.298534 -0.328061,-2.465232 -1.35334,-3.975786 -3.335654,-4.914454 -1.145147,-0.542251 -2.422283,-0.583915 -4.947563,-0.161403 -2.465503,0.41251 -3.68469,0.501753 -4.660523,0.341143 -0.436729,-0.07188 -0.818484,-0.106259 -0.848346,-0.0764 -0.09883,0.09883 1.870996,0.93716 2.936767,1.24985 0.576302,0.169083 1.85218,0.414978 2.835284,0.546434 2.448441,0.327393 2.959291,0.443959 3.811123,0.869625 2.089214,1.043992 3.292317,3.717994 3.193979,7.098902 -0.02209,0.759544 -0.0074,1.34201 0.03275,1.294368 0.0401,-0.04764 0.189438,-0.474931 0.331853,-0.949533 z m -3.30169,-3.12913 0.554729,-0.09066 -0.678002,-0.09972 c -0.892936,-0.131326 -1.888765,-0.509166 -2.337819,-0.88702 -0.198882,-0.167347 -0.666745,-0.739739 -1.039697,-1.271981 -0.372952,-0.532242 -0.853724,-1.092772 -1.068383,-1.245623 -0.345865,-0.246278 -0.376154,-0.251243 -0.26611,-0.04363 0.0683,0.128855 0.246077,0.687719 0.395064,1.241921 0.313179,1.164963 0.85564,1.907926 1.659692,2.273137 0.530507,0.240963 1.734777,0.294484 2.780526,0.123572 z M 55.091659,55.78006 c -0.374734,-2.402798 -1.770539,-5.201644 -3.488847,-6.995784 -0.781424,-0.81591 -1.297495,-1.212122 -2.359964,-1.81186 -0.751972,-0.42447 -0.611491,-0.275346 0.336802,0.357522 1.421775,0.948859 3.094728,3.035794 4.052172,5.054907 0.260442,0.549236 0.710157,1.729665 0.999366,2.623176 0.28921,0.893512 0.538992,1.611409 0.555073,1.595329 0.01608,-0.01608 -0.02649,-0.386561 -0.0946,-0.82329 z m 29.659888,0.173987 c 0.166337,-0.179481 0.359459,-0.553924 0.429159,-0.832094 0.0697,-0.278171 0.207269,-0.72247 0.305709,-0.987331 l 0.178981,-0.481565 -0.276707,0.259954 c -0.373132,0.350538 -1.100978,0.642136 -1.594571,0.638833 -0.898292,-0.006 -2.314926,-0.94964 -2.884346,-1.921282 -0.178118,-0.303936 -0.344088,-0.532376 -0.36882,-0.507644 -0.09905,0.09905 0.475356,1.885241 0.765435,2.380223 0.364175,0.621418 1.148186,1.360774 1.695482,1.598911 0.213208,0.09277 0.62606,0.170845 0.917449,0.173499 0.418274,0.0038 0.593459,-0.06387 0.832229,-0.321504 z m -0.149818,-3.61061 c 0.304118,-0.115626 0.578131,-0.741597 0.746114,-1.704467 l 0.07018,-0.402294 -0.354238,0.261899 c -0.56991,0.421353 -1.364656,0.447791 -2.133942,0.07099 -0.668066,-0.327227 -1.69642,-1.216549 -2.162907,-1.870487 l -0.263811,-0.36982 0.220756,0.739639 c 0.315777,1.058006 0.587078,1.578865 1.163448,2.233656 0.7941,0.902146 1.931814,1.338424 2.714396,1.040887 z M 45.083497,100.23186 c -0.682917,-0.236471 -1.024445,-0.495721 -1.424535,-1.081343 -0.555573,-0.813204 -0.680597,-1.344698 -0.613847,-2.609556 0.107793,-2.042599 0.967808,-3.564272 3.350939,-5.929005 2.0417,-2.025937 4.776539,-3.845052 7.611176,-5.062676 1.196661,-0.514028 2.347089,-0.9339 2.403707,-0.877282 0.02169,0.02168 -0.306386,0.222821 -0.729048,0.44697 -1.953966,1.036239 -4.46677,2.897145 -6.233735,4.616513 -1.241231,1.207796 -1.973605,2.129724 -2.47384,3.114123 -0.836061,1.645259 -0.782243,2.814201 0.189054,4.106311 0.827819,1.101243 0.90929,1.701007 0.347526,2.558368 -0.386108,0.589277 -1.687186,0.973897 -2.427397,0.717577 z m -6.565416,-7.763596 c -0.943078,-0.428547 -1.462324,-1.275028 -1.454302,-2.370823 0.0071,-0.967101 0.356469,-1.715826 1.110341,-2.379411 0.892948,-0.786005 1.717684,-1.098921 4.219742,-1.601031 2.256582,-0.452847 3.792175,-0.925962 7.537445,-2.32228 2.198835,-0.819774 4.971981,-1.572955 6.656595,-1.807918 2.719262,-0.379271 5.807335,-0.200841 8.064094,0.465948 0.987206,0.291683 2.942989,1.066023 2.871943,1.13707 -0.02076,0.02076 -0.491924,-0.0938 -1.047029,-0.254584 -2.832121,-0.820298 -6.965061,-0.910894 -10.454037,-0.229157 -5.040881,0.984976 -12.141181,4.939466 -14.47285,8.060609 -0.997872,1.335739 -2.005165,1.768159 -3.031942,1.301577 z M 66.057676,81.306113 c -1.582699,-0.836538 -4.396067,-1.626634 -7.261156,-2.039198 -0.779703,-0.112275 -1.58406,-0.274991 -1.787461,-0.361591 -0.982782,-0.418428 -1.280932,-1.467942 -0.6146,-2.163443 1.188888,-1.240931 5.172717,-0.405644 8.596539,1.802431 0.457651,0.295146 0.832094,0.566183 0.832094,0.602303 0,0.03612 -0.393296,-0.132388 -0.873991,-0.374462 -1.087108,-0.547458 -3.153425,-1.245728 -4.381905,-1.480775 -1.703093,-0.325856 -3.496501,-0.187844 -3.496501,0.269072 0,0.250862 0.313405,0.361391 2.034008,0.717339 2.610425,0.540028 4.298171,1.175971 6.348569,2.392142 0.945668,0.560912 1.378227,0.885695 1.166693,0.876 -0.06538,-0.003 -0.318409,-0.110915 -0.562289,-0.239818 z M 84.017348,47.075621 c -0.195463,-0.472585 -1.176366,-1.95427 -1.699392,-2.566986 -0.357844,-0.419207 -1.687994,-1.415999 -2.441721,-1.829783 -2.008453,-1.102608 -3.986706,-1.514777 -6.709558,-1.397934 -3.566248,0.153034 -5.730504,0.965843 -10.727642,4.028875 -3.100855,1.900691 -5.091221,2.265096 -7.059258,1.292439 -0.503968,-0.249074 -0.898203,-0.470964 -0.876078,-0.49309 0.02213,-0.02212 0.345255,0.04224 0.718065,0.14304 1.278192,0.345586 3.1745,0.0021 4.965928,-0.899461 0.460044,-0.231527 1.498344,-0.835983 2.307335,-1.343237 4.076781,-2.556223 7.046953,-3.650865 10.425439,-3.842242 3.009518,-0.170477 6.045111,0.747717 8.05365,2.436035 0.711472,0.598042 0.843814,0.67524 0.599628,0.349777 -0.95107,-1.267631 -1.195333,-2.628377 -0.711141,-3.961636 0.389778,-1.073284 0.844322,-1.690797 2.29126,-3.112755 l 1.254389,-1.232732 0.992751,1.479279 c 1.30929,1.950947 1.520493,2.497758 1.595058,4.129651 0.05482,1.199726 0.03169,1.376311 -0.316317,2.415029 -0.206503,0.616364 -0.583636,1.503931 -0.838074,1.972371 -0.254438,0.468441 -0.717534,1.332012 -1.029102,1.919046 l -0.566488,1.067335 z m 0.776308,-3.098402 c 0.702061,-1.306864 0.63585,-3.032247 -0.154349,-4.022176 l -0.288527,-0.361454 -0.319584,0.546364 c -0.673838,1.152002 -0.682848,2.163616 -0.0328,3.682961 0.161161,0.37668 0.333635,0.795818 0.383275,0.931419 0.07957,0.217349 0.10027,0.20275 0.174832,-0.123273 0.04652,-0.203401 0.153237,-0.497629 0.237156,-0.653841 z m -30.61988,1.356648 c -0.651542,-0.225888 -0.925798,-0.405913 -2.833592,-1.860004 -1.22797,-0.93594 -2.631019,-1.735994 -3.502071,-1.996967 L 47.344014,41.32886 47.87928,40.716971 c 1.004448,-1.148235 1.519305,-2.609847 1.382015,-3.923362 -0.09543,-0.913002 -0.507842,-2.00305 -0.947146,-2.50339 -0.759479,-0.864999 -2.236694,-1.360923 -3.233755,-1.085622 -0.624916,0.172548 -0.582392,-0.0071 0.125257,-0.52918 1.448986,-1.069009 3.537037,-1.074146 4.975696,-0.01224 0.57998,0.428096 1.588601,1.815421 1.588601,2.185069 0,0.112402 -0.189876,0.486523 -0.421947,0.831379 -0.863423,1.283042 -1.307804,3.139751 -1.071941,4.478771 0.186338,1.057854 0.548643,1.722305 1.327026,2.433704 1.345787,1.229973 3.417381,1.458347 5.590049,0.616251 0.971026,-0.376356 1.595866,-0.765528 5.548127,-3.455566 2.09472,-1.425735 4.207086,-2.409298 6.384667,-2.972837 1.205141,-0.311881 1.761717,-0.384061 3.374401,-0.437612 2.277006,-0.07561 2.568251,-0.02938 2.568251,0.407712 0,0.519625 0.312694,0.964535 1.382286,1.966758 0.726171,0.680433 0.932432,0.933002 0.713358,0.873516 -1.769732,-0.480547 -4.529283,-0.589858 -6.442473,-0.255197 -2.929019,0.512351 -5.062096,1.444294 -8.781766,3.836759 -1.660388,1.06795 -3.056502,1.778099 -4.173455,2.122873 -1.072278,0.330984 -2.699788,0.348702 -3.592755,0.03911 z m -0.45286,-2.849853 c -1.617104,-0.52573 -2.693349,-2.129295 -2.511456,-3.741974 0.281432,-2.495195 2.030451,-4.182944 5.376226,-5.187888 0.571856,-0.171764 1.261631,-0.349938 1.532832,-0.395941 l 0.493092,-0.08364 -0.493092,0.363732 c -1.075246,0.793159 -1.544988,2.43972 -1.116508,3.913638 0.243562,0.837826 1.187564,1.940056 1.961364,2.290119 l 0.475037,0.214904 -1.029766,0.881875 c -1.330022,1.13901 -2.48227,1.720884 -3.556867,1.796183 -0.440702,0.03088 -0.94959,0.0079 -1.130862,-0.051 z m 24.85976,-2.447039 c -0.809313,-0.764536 -1.921976,-2.474691 -1.936229,-2.97597 -0.01187,-0.417479 0.296822,-0.840759 0.735506,-1.008528 0.632277,-0.241807 1.538122,0.462165 1.821177,1.415315 0.188771,0.635658 0.260396,3.158719 0.08956,3.15473 -0.05085,-0.0012 -0.370355,-0.264683 -0.710011,-0.585547 z M 46.658493,38.722473 c 0.225875,-0.540595 0.229735,-1.072057 0.0115,-1.584219 -0.453988,-1.065465 -1.568581,-1.366343 -2.311065,-0.623859 -0.521044,0.521044 -0.632844,1.424451 -0.25544,2.064103 0.305943,0.518534 0.06057,0.474501 -0.334641,-0.06005 -0.398467,-0.538955 -0.628027,-1.285677 -0.628027,-2.042873 0,-2.438803 2.630546,-3.65418 4.256297,-1.966515 1.135201,1.178432 1.054379,3.170324 -0.167165,4.119894 -0.729636,0.567183 -0.772288,0.574163 -0.571464,0.09352 z m 13.309122,0.128449 c -1.861868,-0.813365 -2.328709,-3.201359 -0.899153,-4.599372 1.519318,-1.485797 4.047235,-1.681639 6.46841,-0.501121 0.740802,0.361201 1.765498,1.121324 1.765498,1.309652 0,0.04772 -0.262124,0.164151 -0.582497,0.258746 -1.290814,0.381132 -4.311969,2.10266 -5.778768,3.292884 -0.278184,0.22573 -0.527812,0.408247 -0.55473,0.405593 -0.02692,-0.0027 -0.215359,-0.07753 -0.41876,-0.166382 z M 79.845368,36.69938 c -0.329569,-0.927923 -1.070962,-1.689272 -1.819969,-1.868956 -0.567774,-0.136207 -0.89798,-0.119634 -1.391769,0.06985 -0.252072,0.09673 -0.502779,-1.329241 -0.437334,-2.487465 0.08655,-1.531672 1.002391,-2.954591 2.297135,-3.568986 0.242194,-0.114929 1.110057,-0.340235 1.928583,-0.500681 1.788555,-0.350587 2.832141,-0.765838 3.580783,-1.424819 0.3068,-0.270056 0.557819,-0.441685 0.557819,-0.381396 0,0.327198 -0.843182,1.340791 -1.920808,2.309011 -1.525142,1.370302 -2.075227,2.085737 -2.391835,3.110793 -0.397383,1.286578 -0.304723,2.02157 0.49666,3.939568 0.149966,0.358922 0.137568,0.416358 -0.168345,0.779916 -0.181629,0.215853 -0.330234,0.443677 -0.330234,0.506275 0,0.305089 -0.211173,0.05048 -0.400686,-0.48311 z m 7.445342,0.03266 c -0.128287,-0.281558 -0.0934,-0.400824 0.307087,-1.049656 0.248501,-0.402603 0.468033,-0.715791 0.48785,-0.695975 0.07077,0.07077 -0.191068,1.037765 -0.418605,1.545986 l -0.231601,0.517297 z m -6.032903,-1.594781 c -0.08186,-0.306074 -0.14884,-0.94995 -0.14884,-1.430836 0,-0.722465 0.06606,-1.012752 0.380307,-1.6712 0.398742,-0.835488 0.798995,-1.287197 2.357202,-2.660242 0.598007,-0.526946 1.00267,-0.991304 1.101115,-1.26355 0.165701,-0.458237 0.352623,-0.572015 0.352726,-0.214702 1.07e-4,0.369521 0.466451,1.465047 1.102088,2.589 0.335424,0.593107 0.675469,1.343623 0.755655,1.667814 0.204268,0.825846 0.09291,2.375769 -0.213238,2.967891 l -0.245849,0.475499 -0.874541,-1.153501 c -0.480997,-0.634426 -1.012105,-1.414925 -1.18024,-1.734442 l -0.305698,-0.58094 -0.340138,0.704213 c -0.231069,0.4784 -0.691345,1.050091 -1.4354,1.782854 -0.602394,0.593252 -1.108997,1.078641 -1.125785,1.078641 -0.01679,0 -0.0975,-0.250425 -0.179364,-0.556499 z M 68.611337,34.51625 c -0.04193,-0.109266 -0.07624,-0.515212 -0.07624,-0.902102 0,-0.920375 0.379623,-1.678521 1.086409,-2.169667 0.448372,-0.311575 0.67396,-0.37665 1.439731,-0.41532 0.768268,-0.0388 1.011829,0.0017 1.582204,0.262783 0.889988,0.40745 1.624782,1.162557 2.081953,2.13951 0.204661,0.43735 0.35023,0.817064 0.323486,0.843808 -0.02674,0.02675 -0.29675,-0.0093 -0.600013,-0.08019 -1.04886,-0.245036 -4.081067,0.0048 -5.56017,0.458196 -0.114795,0.03519 -0.233854,-0.02363 -0.277365,-0.137018 z M 52.184133,34.059542 c -0.485426,-0.735627 -0.566409,-0.982139 -0.50414,-1.534591 0.179303,-1.590772 2.440649,-3.270955 5.942769,-4.415484 1.927463,-0.629914 3.818316,-0.933381 6.289595,-1.00943 4.06429,-0.12507 7.756686,0.621333 10.394932,2.101295 0.745696,0.418309 0.891717,0.550043 0.838687,0.756629 -0.03532,0.137575 -0.131326,0.510709 -0.213357,0.829187 L 74.78347,31.3662 74.232489,30.881207 c -1.591335,-1.400749 -3.964848,-1.594297 -5.553885,-0.452891 -0.460982,0.331124 -1.02612,1.143674 -1.327968,1.909341 -0.0074,0.01865 -0.25855,-0.07118 -0.558213,-0.19963 -0.988714,-0.423812 -2.244107,-0.635562 -3.768037,-0.635562 -1.205989,0 -1.888995,0.086 -3.982044,0.501369 -3.383449,0.671459 -5.094842,1.269181 -6.131542,2.141506 -0.206342,0.173625 -0.394895,0.315303 -0.419008,0.314839 -0.02411,-4.63e-4 -0.162559,-0.18075 -0.307659,-0.400637 z m 2.975828,-6.811027 c 2.088674,-1.87321 4.819039,-2.747483 8.937306,-2.861759 4.288139,-0.118989 7.368707,0.674056 9.764018,2.513598 0.962085,0.738857 0.97721,0.828489 0.07049,0.4177 -2.739587,-1.241166 -6.887095,-1.977725 -10.142689,-1.801248 -3.157183,0.171142 -6.477077,0.90416 -8.50585,1.878054 l -0.616366,0.295881 z m 17.504793,-2.35986 c -0.367616,-0.291895 -1.862912,-0.972169 -2.773647,-1.26185 -1.398861,-0.444941 -2.904058,-0.640466 -4.930928,-0.640525 -3.237571,-9.6e-5 -5.522808,0.473875 -7.484998,1.55243 -0.430535,0.236652 -0.816546,0.430276 -0.8578,0.430276 -0.04125,0 -0.04475,-0.441451 -0.0078,-0.981003 0.05478,-0.79919 0.139146,-1.106683 0.455222,-1.659125 1.227636,-2.145684 4.466262,-3.401841 8.371172,-3.246905 3.557666,0.141158 6.273442,1.425432 7.28192,3.443576 0.319085,0.638545 0.378284,0.898616 0.378284,1.661871 0,0.497673 -0.04161,0.903095 -0.09246,0.900939 -0.05085,-0.0022 -0.203401,-0.09201 -0.339001,-0.199684 z M 61.570167,18.634701 c 0.2034,-0.08854 0.652705,-0.233395 0.998453,-0.321908 l 0.628634,-0.160933 -0.460273,-0.460273 c -0.554484,-0.554484 -0.782978,-1.183639 -0.708788,-1.951643 0.08015,-0.829702 0.389553,-1.386337 1.473414,-2.650759 0.530637,-0.619036 1.05076,-1.305807 1.15583,-1.526158 0.10507,-0.22035 0.211646,-0.400638 0.236835,-0.400638 0.02519,0 0.166778,0.195748 0.314641,0.434996 0.147863,0.239247 0.687545,0.946527 1.199293,1.571733 0.511749,0.625206 1.032015,1.358629 1.156147,1.62983 0.27258,0.595527 0.298844,1.66872 0.0525,2.145104 -0.200269,0.387278 -0.982539,1.11678 -1.2125,1.130711 -0.08239,0.005 0.238508,0.108465 0.71311,0.229942 0.871335,0.223023 1.583179,0.480453 1.356005,0.490383 -0.0678,0.003 -0.567056,-0.07479 -1.109458,-0.172795 -1.301155,-0.235093 -4.066959,-0.234951 -5.177428,2.65e-4 -1.035422,0.219319 -1.095071,0.220494 -0.616412,0.01214 z" style="fill: inherit;"/></g></svg>