<svg xmlns="http://www.w3.org/2000/svg" version="1.0" width="1280.000000pt" height="1280.000000pt" viewBox="0 0 1280.000000 1280.000000" preserveAspectRatio="xMidYMid meet">
<metadata fill="#f9bf85">
Created by potrace 1.15, written by Peter Selinger 2001-2017
</metadata>
<g transform="translate(0.000000,1280.000000) scale(0.100000,-0.100000)" fill="#f9bf85" stroke="none">
<path d="M1860 12464 c-471 -53 -777 -302 -891 -724 -20 -73 -23 -108 -23 -255 0 -198 16 -273 86 -415 33 -68 59 -102 127 -171 71 -71 102 -94 181 -132 131 -65 225 -87 370 -87 360 0 614 201 711 560 16 61 16 222 0 290 -30 124 -136 278 -233 341 -72 46 -113 59 -191 59 -119 0 -175 -73 -112 -148 38 -45 95 -63 232 -72 141 -9 194 -29 243 -88 39 -47 53 -121 48 -241 -11 -229 -150 -456 -339 -556 -384 -202 -878 -16 -1000 375 -35 112 -45 258 -26 387 27 190 100 344 222 468 151 154 344 228 590 228 332 -1 583 -130 751 -388 251 -386 290 -955 119 -1750 -34 -158 -131 -513 -144 -527 -3 -4 -7 57 -7 135 -2 117 -6 159 -27 239 -87 331 -334 538 -642 538 -313 0 -535 -210 -535 -505 0 -137 46 -251 142 -351 128 -134 317 -187 465 -133 131 49 214 144 221 253 2 34 -1 72 -6 86 -9 24 -10 23 -17 -15 -11 -57 -28 -86 -74 -128 -76 -68 -191 -83 -287 -36 -146 70 -217 225 -169 368 36 111 109 155 250 155 108 0 161 -20 235 -90 87 -81 130 -181 150 -349 28 -232 -47 -584 -232 -1094 -39 -108 -181 -470 -315 -806 -533 -1328 -623 -1612 -743 -2360 -35 -218 -45 -404 -32 -588 41 -544 247 -1009 599 -1347 309 -298 676 -453 1132 -479 64 -3 166 -3 226 0 61 4 110 6 111 5 0 0 -3 -44 -8 -96 -13 -154 9 -417 48 -580 61 -253 182 -497 345 -695 300 -365 769 -610 1303 -681 141 -18 440 -18 576 1 548 76 787 131 1269 291 273 91 507 181 1202 459 691 277 982 386 1220 455 296 86 484 116 664 107 283 -16 449 -129 487 -335 14 -76 -8 -179 -50 -232 -68 -85 -214 -111 -325 -57 -98 48 -177 167 -177 266 0 95 54 192 128 230 13 7 42 16 65 20 l42 8 -44 12 c-84 24 -171 -9 -250 -94 -59 -64 -83 -124 -89 -221 -8 -138 45 -270 147 -367 74 -71 131 -103 226 -127 94 -24 132 -25 233 -4 187 38 297 137 370 332 22 58 25 83 25 187 1 103 -3 131 -26 200 -72 218 -236 367 -484 441 -72 21 -118 27 -248 33 l-160 6 105 32 c328 101 687 174 1006 204 159 15 539 7 649 -14 390 -74 652 -230 802 -479 70 -116 113 -296 113 -473 0 -399 -218 -686 -600 -792 -87 -24 -300 -29 -401 -9 -321 63 -539 340 -539 686 0 114 22 208 70 309 32 67 56 100 118 160 90 89 159 132 279 174 77 27 102 31 198 31 133 1 188 -16 238 -75 44 -51 55 -92 66 -237 14 -173 49 -236 131 -230 65 5 85 38 85 136 0 88 -26 155 -90 229 -44 51 -148 127 -218 157 -193 86 -445 50 -654 -92 -286 -194 -374 -613 -201 -957 88 -175 243 -303 438 -363 107 -33 271 -46 389 -33 238 28 422 111 574 259 130 126 214 273 265 460 24 91 26 111 26 317 0 207 -2 226 -27 318 -158 586 -767 1002 -1622 1108 -128 16 -530 16 -660 0 -488 -60 -914 -191 -1421 -436 -314 -152 -590 -310 -1036 -596 -137 -88 -359 -230 -495 -317 -726 -465 -1212 -704 -1689 -832 -241 -65 -549 -87 -781 -56 -550 73 -1017 364 -1267 789 -111 189 -180 396 -211 634 -15 117 -20 325 -9 407 6 44 9 46 48 56 174 45 368 136 498 234 238 181 424 470 489 759 16 73 20 75 182 83 213 12 417 -25 571 -102 211 -106 361 -295 423 -532 36 -139 36 -325 0 -464 -40 -151 -104 -266 -207 -369 -73 -73 -101 -94 -180 -132 -137 -65 -209 -81 -365 -80 -100 0 -149 5 -210 22 -184 49 -307 136 -368 260 -31 63 -32 70 -32 186 0 106 4 133 33 230 33 115 40 198 19 226 -59 77 -149 55 -202 -49 -21 -43 -45 -154 -45 -212 0 -80 37 -230 78 -314 91 -189 265 -327 492 -388 114 -31 357 -33 465 -5 308 82 523 315 601 652 28 121 26 331 -5 449 -98 375 -348 606 -751 693 -65 14 -129 18 -275 18 l-190 0 3 164 c8 359 -83 618 -285 812 -170 164 -364 245 -613 256 -289 12 -518 -73 -705 -261 -75 -75 -99 -107 -138 -186 -69 -139 -89 -226 -90 -390 -1 -262 70 -447 233 -611 63 -63 94 -85 171 -122 132 -64 211 -81 351 -75 88 4 124 10 164 27 89 39 133 102 109 156 -33 80 -95 87 -270 34 -97 -29 -124 -33 -225 -34 -110 0 -118 1 -182 33 -95 46 -157 110 -206 213 -63 131 -77 200 -77 374 0 129 3 160 23 225 49 156 142 293 257 378 264 194 632 225 930 78 220 -109 366 -292 431 -542 29 -110 43 -327 29 -469 -8 -88 2 -79 -145 -120 -262 -72 -533 -259 -697 -480 -95 -127 -193 -340 -224 -484 l-10 -48 -67 -7 c-171 -16 -393 1 -580 45 -701 162 -1181 763 -1242 1554 -34 432 90 898 400 1510 164 323 275 509 659 1104 598 925 831 1366 1012 1914 141 425 197 788 186 1207 -11 415 -91 757 -254 1085 -217 436 -538 708 -932 790 -72 15 -303 27 -371 19z m2230 -8293 c0 -23 -66 -194 -105 -271 -144 -285 -402 -507 -695 -598 -110 -35 -110 -35 -110 -19 0 30 52 175 95 262 134 277 397 504 707 610 78 26 108 31 108 16z" fill="#f9bf85"/>
<path d="M3034 7090 c-507 -49 -985 -310 -1304 -710 -363 -456 -551 -1033 -510 -1565 51 -662 365 -1139 868 -1319 155 -55 395 -85 552 -68 l75 8 -136 7 c-364 19 -621 126 -852 354 -369 364 -503 1049 -331 1683 102 375 319 748 586 1006 353 342 817 521 1298 501 504 -21 907 -265 995 -602 71 -275 -92 -567 -344 -615 -217 -41 -419 47 -503 218 -30 61 -33 74 -33 162 0 111 22 167 90 235 68 68 124 90 235 90 105 0 153 -16 166 -57 4 -13 7 -59 8 -103 1 -59 6 -88 19 -108 39 -60 106 -15 93 64 -10 61 -39 111 -94 161 -97 87 -240 101 -369 38 -231 -114 -269 -435 -74 -631 158 -157 446 -192 643 -76 54 31 146 127 182 189 91 156 107 359 41 534 -73 195 -273 382 -521 489 -222 95 -522 140 -780 115z" fill="#f9bf85"/>
<path d="M6045 4460 c-323 -70 -505 -353 -425 -664 38 -149 121 -256 247 -318 64 -31 75 -33 173 -33 95 0 111 3 168 29 153 71 239 247 198 406 -32 126 -138 220 -246 220 -53 0 -70 -13 -70 -51 0 -44 35 -59 137 -59 105 0 124 -10 147 -77 40 -116 -2 -269 -94 -347 -143 -119 -351 -106 -490 33 -88 88 -126 205 -117 362 6 120 40 199 118 277 101 101 210 145 364 145 108 1 164 -12 256 -58 67 -34 88 -50 167 -128 315 -308 408 -904 227 -1445 -161 -481 -502 -852 -1017 -1107 -313 -155 -609 -224 -961 -225 -459 0 -837 131 -1105 383 -233 222 -354 505 -371 872 l-7 150 -8 -99 c-15 -178 11 -382 69 -546 187 -521 703 -843 1390 -867 508 -18 1005 145 1442 473 381 286 629 675 729 1142 35 161 44 446 20 610 -39 262 -136 490 -284 665 -98 116 -205 191 -339 238 -65 23 -249 34 -318 19z" fill="#f9bf85"/>
<path d="M1746 3311 c-11 -18 -163 -100 -266 -144 -106 -45 -302 -111 -420 -142 -101 -26 -98 -24 -65 -45 45 -28 176 -79 263 -101 281 -72 676 -69 1077 7 134 26 360 81 384 94 7 4 -43 12 -110 19 -238 23 -471 81 -611 152 -85 43 -170 101 -201 138 -26 32 -41 38 -51 22z" fill="#f9bf85"/>
<path d="M2690 2889 c-178 -64 -495 -128 -740 -150 -166 -14 -544 -6 -685 15 -107 16 -268 49 -325 66 -58 17 -61 14 -35 -43 12 -29 39 -100 59 -158 149 -440 185 -906 101 -1314 -13 -60 -22 -111 -21 -112 1 -1 389 385 861 857 473 473 855 860 850 859 -6 0 -35 -9 -65 -20z" fill="#f9bf85"/>
<path d="M1950 1993 c-476 -476 -856 -862 -845 -859 38 14 200 45 290 56 130 16 439 14 576 -5 238 -31 459 -86 658 -164 58 -22 106 -39 108 -37 2 2 -5 37 -16 77 -98 359 -110 874 -31 1302 23 128 71 319 105 416 14 41 24 76 22 77 -2 2 -392 -386 -867 -863z" fill="#f9bf85"/>
<path d="M2883 2800 c-64 -192 -125 -534 -145 -808 -23 -338 21 -632 130 -862 l36 -75 13 50 c70 263 201 591 284 711 l32 47 -30 26 c-151 128 -255 420 -297 831 -11 108 -13 113 -23 80z" fill="#f9bf85"/>
</g>
</svg>