<svg xmlns="http://www.w3.org/2000/svg" xmlns:xlink="http://www.w3.org/1999/xlink" preserveAspectRatio="xMidYMid meet" version="1.0" viewBox="17.3 10.7 83.2 108.0" zoomAndPan="magnify" style="fill: rgb(255, 211, 140);" original_string_length="47860" width="76.51630440840096px" height="99.4892846917743px"><g id="__id0_ssh4u7rxyj"><path d="m 50.355195,118.4839 c -2.337728,-0.22715 -5.160049,-1.04758 -7.59147,-2.2068 -6.71015,-3.19918 -13.058516,-10.63055 -14.699932,-17.207686 -0.394054,-1.578971 -0.448719,-2.27926 -0.08179,-1.047822 0.364215,1.222341 1.386949,3.390808 2.180264,4.622748 1.142049,1.77347 2.543493,3.14334 4.354782,4.25665 2.037411,1.25229 3.894782,1.81413 6.346115,1.91963 0.854999,0.0368 1.764793,0.14576 2.043859,0.24477 1.481441,0.5256 1.722403,2.22245 0.410633,2.89167 -0.768683,0.39215 -1.520955,0.4308 -2.680038,0.1377 -1.439281,-0.36397 -3.482181,-1.37841 -4.558618,-2.26367 -0.250221,-0.20578 -0.120743,-0.0486 0.287728,0.3492 2.112308,2.05735 5.876281,3.78022 8.637489,3.95361 1.869431,0.11739 3.072618,-0.35973 3.621809,-1.43624 0.269146,-0.52757 0.332499,-1.49907 0.132123,-2.0261 -0.190861,-0.502 -0.993282,-1.30549 -1.621854,-1.62401 -0.71006,-0.35982 -1.020793,-0.43131 -4.267501,-0.98183 -3.186031,-0.54024 -4.916454,-1.01168 -6.521147,-1.77664 -1.470052,-0.70078 -2.479748,-1.36404 -3.391005,-2.22751 l -0.660965,-0.62631 0.862913,0.61028 c 2.850781,2.01614 6.670998,3.28787 11.891512,3.95862 2.100117,0.26983 3.473142,0.63974 4.291064,1.15608 1.258186,0.79425 1.908647,2.12445 1.622377,3.31775 -0.295159,1.23036 -1.906155,2.40511 -3.355797,2.44706 -0.428209,0.0124 -0.346319,0.0459 0.466899,0.19122 1.259137,0.22497 5.025058,0.14248 6.286191,-0.1377 2.023436,-0.44952 4.157148,-1.33238 5.575884,-2.30713 0.936566,-0.64347 2.091678,-1.9074 2.498607,-2.73399 1.275519,-2.59095 0.373639,-5.29887 -1.873871,-5.62635 l -0.652585,-0.0951 0.669608,-0.0154 c 0.368284,-0.008 1.107964,0.1029 1.643733,0.24747 2.298134,0.6201 3.575676,2.2325 3.386957,4.2747 -0.244663,2.64761 -2.471067,5.19557 -6.131408,7.01698 -0.576493,0.28686 -1.009427,0.52262 -0.962077,0.52391 0.04735,0.001 0.546607,-0.14175 1.109459,-0.31785 2.517112,-0.78755 5.178222,-2.4872 7.084149,-4.52464 1.090101,-1.16532 1.808901,-2.22437 2.496391,-3.67806 1.137758,-2.40578 1.444283,-4.70737 0.799301,-6.00168 -0.550368,-1.10444 -1.774864,-1.71612 -3.199036,-1.59801 -0.786484,0.0652 -0.757492,0.009 0.25797,-0.503358 0.81964,-0.413271 1.991699,-0.755587 2.58706,-0.755587 1.600634,0 3.128704,1.326425 3.344863,2.903475 0.0507,0.36993 0.118649,0.52046 0.198759,0.44035 0.181094,-0.1811 -0.08556,-1.76212 -0.41035,-2.433053 -0.322976,-0.66718 -1.074355,-1.253419 -1.743675,-1.360448 l -0.475304,-0.076 1.199537,-0.607146 c 1.533497,-0.77618 2.436038,-1.424782 4.332239,-3.11332 2.119272,-1.88718 3.400247,-2.794563 5.219991,-3.697601 1.630796,-0.809273 3.510867,-1.404018 5.319558,-1.682799 2.08745,-0.321746 5.364192,0.09839 7.386238,0.947039 3.125143,1.311622 5.389161,3.805815 6.206536,6.83754 0.31872,1.182148 0.28845,3.149148 -0.0644,4.184158 -0.671754,1.97054 -1.938445,3.11281 -3.643983,3.28604 l -0.616366,0.0626 0.621063,-0.30054 c 0.783405,-0.37911 1.571596,-1.26713 1.923429,-2.16706 0.358798,-0.91774 0.392033,-3.011058 0.06683,-4.209417 -0.83138,-3.063604 -3.427797,-5.575368 -6.763779,-6.543254 -1.287195,-0.373461 -3.845379,-0.4605 -5.329429,-0.181327 -2.774866,0.521996 -5.465006,2.052999 -7.3269,4.16986 -2.366147,2.690165 -3.560988,5.712248 -3.61499,9.143308 -0.02261,1.43645 -0.20322,1.2349 -0.215091,-0.24002 -0.02805,-3.48481 1.320523,-6.772573 3.821127,-9.315765 0.571325,-0.581055 1.343874,-1.32048 1.716775,-1.643166 l 0.678003,-0.586701 -0.862913,0.455549 c -1.51145,0.797926 -3.291937,2.406113 -4.525785,4.087819 -1.10903,1.511583 -2.760265,5.146304 -3.041081,6.694084 -0.183437,1.01104 -0.887134,3.03178 -1.405173,4.03508 -0.596863,1.15597 -1.873959,2.90147 -2.852986,3.89939 -2.965223,3.02243 -6.532891,5.01403 -10.857241,6.06089 -2.634601,0.6378 -4.948693,0.80562 -7.581301,0.54983 z m 18.121158,-3.6573 c -0.1017,-0.0414 -0.323592,-0.12666 -0.493092,-0.1895 -0.29822,-0.11054 -0.300212,-0.11864 -0.06164,-0.25042 0.810336,-0.44759 2.507997,-2.01415 3.240169,-2.98995 l 0.277488,-0.36982 -0.18082,0.4931 c -0.09945,0.2712 -0.244302,0.74272 -0.32189,1.04782 -0.252899,0.99448 -0.602019,1.65476 -1.02936,1.94678 -0.42967,0.29361 -1.111001,0.44217 -1.430858,0.31199 z m 16.641881,-0.002 c -0.894824,-0.15042 -2.218798,-0.58909 -3.119967,-1.03373 -2.585091,-1.27549 -4.68701,-3.81759 -5.397219,-6.5275 -0.338157,-1.29029 -0.368213,-3.24302 -0.06785,-4.40824 0.558886,-2.16812 1.973885,-3.951111 3.654109,-4.604407 1.016645,-0.395287 2.525397,-0.387926 3.561411,0.01738 0.907538,0.35504 1.823266,1.118496 2.283457,1.903747 0.436201,0.74432 0.402162,0.76992 -0.181618,0.1366 -1.249627,-1.355684 -3.590956,-1.244511 -4.890837,0.23223 -1.05797,1.20191 -1.264152,3.04134 -0.564122,5.03274 0.537219,1.52824 1.049241,2.32653 2.318809,3.61523 0.91335,0.92711 1.294674,1.21675 2.157281,1.63857 2.828841,1.38332 5.586356,0.78999 6.683268,-1.43803 0.367032,-0.74551 0.40494,-0.92661 0.40494,-1.9346 0,-0.9414 -0.0494,-1.21742 -0.321829,-1.79831 -0.812025,-1.73141 -2.560879,-2.53404 -4.001687,-1.83655 -1.185788,0.57403 -1.60572,2.08689 -0.882584,3.17962 0.401878,0.60728 1.123603,1.00733 1.817299,1.00733 0.619317,0 1.0972,-0.23623 1.538281,-0.76043 0.293178,-0.34842 0.328585,-0.47796 0.277099,-1.01378 -0.04902,-0.51019 -0.134548,-0.68353 -0.504543,-1.02261 -0.519849,-0.4764 -0.396576,-0.55559 0.149543,-0.0961 0.450098,0.37874 0.684643,1.03191 0.599224,1.66876 -0.192784,1.43731 -1.969024,2.20138 -3.450442,1.48424 -1.802462,-0.87256 -2.513551,-2.91069 -1.623035,-4.65195 0.49668,-0.97118 1.521133,-1.79766 2.58534,-2.08573 1.126062,-0.30481 2.477917,-0.20614 3.438019,0.25094 2.210944,1.05256 3.641308,3.86987 3.290017,6.48016 -0.437456,3.25056 -2.926004,5.72569 -6.498689,6.46364 -0.831131,0.17168 -2.520539,0.22399 -3.253674,0.10075 z m -32.417459,-0.61965 c 0.738542,-0.51354 1.060141,-1.34523 0.946382,-2.44745 -0.08258,-0.80015 -0.498227,-1.57292 -1.157225,-2.15153 l -0.463423,-0.40689 0.886252,0.0743 c 0.936613,0.0785 1.879274,0.42268 2.337905,0.85354 0.151689,0.1425 0.367745,0.49986 0.480124,0.79412 0.500328,1.31009 -0.308134,2.46794 -2.227728,3.19047 -0.949766,0.35749 -1.228761,0.38999 -0.802287,0.0934 z m 19.769238,-0.25954 c -0.345482,-0.28881 -0.54201,-0.67478 -0.54201,-1.0645 0,-0.31803 0.0017,-0.31856 0.384795,-0.12047 0.795591,0.41142 1.70784,-0.0809 2.250874,-1.21469 l 0.307554,-0.64215 -0.06621,0.73964 c -0.104553,1.16801 -0.266675,1.63437 -0.728832,2.09652 -0.340282,0.34028 -0.526657,0.42972 -0.888742,0.42648 -0.251991,-0.002 -0.574835,-0.10163 -0.717431,-0.22083 z m -15.495132,-0.77239 c 0.923852,-0.98459 1.03205,-2.33248 0.253913,-3.16315 -0.319302,-0.34086 -0.207586,-0.34572 0.707702,-0.0308 1.188426,0.40888 2.20693,0.28985 2.927738,-0.34215 0.5726,-0.50206 -0.151652,0.83468 -0.866024,1.5984 -0.682438,0.72959 -1.403426,1.26261 -2.554807,1.88876 l -0.862912,0.46928 z m 15.596917,-1.4135 c -0.399953,-0.28014 -0.343218,-0.48877 0.326944,-1.2023 0.931126,-0.99138 1.348531,-2.04867 1.386479,-3.51197 0.01371,-0.52857 0.03045,-0.49284 0.190559,0.4067 0.214886,1.20729 0.153829,2.93744 -0.12252,3.47185 -0.258172,0.49924 -0.893788,1.02762 -1.236191,1.02762 -0.149213,0 -0.394585,-0.0863 -0.545271,-0.1919 z M 66.354605,110.842 c 0.615954,-1.14051 0.814153,-1.91648 0.818654,-3.2051 0.0054,-1.55237 -0.237208,-2.25102 -1.108595,-3.19223 -1.052618,-1.13695 -2.815368,-1.75992 -4.231333,-1.49539 -0.312546,0.0584 -0.58779,0.0866 -0.611654,0.0628 -0.08966,-0.0897 1.442867,-0.78675 2.328093,-1.05897 1.238246,-0.38077 2.890446,-0.39356 3.700114,-0.0286 0.864103,0.38946 1.427871,0.95476 1.713487,1.71813 0.679405,1.81587 -0.01534,4.28993 -1.827353,6.5074 -1.105478,1.35284 -1.16838,1.40854 -0.781413,0.69202 z m -12.054668,-2.72241 c -0.508502,-0.12641 -2.588737,-0.39973 -4.622745,-0.60738 -4.796468,-0.48967 -5.90018,-0.65705 -8.155107,-1.23675 -3.226012,-0.82935 -5.225974,-1.75046 -7.507209,-3.45754 -1.130993,-0.84633 -2.715257,-2.40574 -3.244688,-3.193776 -0.188676,-0.280836 -0.03755,-0.166273 0.432899,0.328167 4.078729,4.286719 10.958952,6.848329 18.412469,6.855239 1.678345,0.002 2.557244,-0.054 3.328376,-0.21038 1.627086,-0.32996 2.959041,-0.3861 3.426413,-0.14441 0.694504,0.35914 0.869722,1.1734 0.356292,1.65575 -0.357158,0.33553 -1.107814,0.33896 -2.4267,0.0111 z m -9.676945,-3.20149 c -2.864937,-0.29584 -5.821779,-1.21958 -8.128306,-2.53935 -4.225564,-2.417818 -7.368721,-6.726301 -8.529572,-11.691912 -0.191588,-0.819527 -0.229795,-1.475745 -0.226091,-3.883106 0.0039,-2.522591 0.03982,-3.059209 0.278152,-4.152877 0.73986,-3.395155 2.136718,-6.106642 4.521351,-8.776543 0.651376,-0.729298 0.69715,-0.819698 0.624201,-1.232732 -0.281677,-1.594829 -2.667162,-4.735029 -6.526398,-8.591204 -3.549783,-3.546969 -6.113514,-5.382028 -8.609527,-6.162501 -0.389852,-0.121902 -0.708821,-0.276936 -0.708821,-0.34452 0,-0.223699 4.964754,-5.059947 6.533479,-6.364368 3.560953,-2.960991 6.781382,-4.592275 10.746397,-5.443504 1.849989,-0.397164 5.234555,-0.401906 6.795544,-0.0095 3.214874,0.808123 5.576743,2.645835 6.927582,5.390183 0.865847,1.759043 1.053388,2.493111 1.133789,4.437835 0.110196,2.665395 -0.331682,4.243343 -2.123019,7.581301 -0.491204,0.915303 -1.104724,2.203169 -1.363377,2.861924 -0.258654,0.658756 -0.481893,1.185749 -0.496087,1.171096 -0.01419,-0.01465 0.13996,-1.052891 0.342565,-2.307196 0.460534,-2.851116 0.535343,-5.61967 0.186535,-6.903298 -0.671377,-2.470693 -2.333244,-4.358798 -4.653312,-5.286789 -1.320363,-0.528125 -2.360777,-0.675979 -4.17586,-0.593436 -2.246942,0.102183 -3.921025,0.629435 -8.049796,2.535279 -2.440209,1.126404 -4.711295,1.660391 -6.800537,1.598971 l -1.411203,-0.04149 0.453386,0.366963 c 1.445971,1.170347 2.903157,2.754308 7.657587,8.323796 1.649526,1.932307 4.020763,4.684657 5.269415,6.116332 2.665292,3.055961 4.061085,4.820177 4.650578,5.878105 1.293931,2.322141 1.433163,4.936202 0.333101,6.253899 -0.277456,0.332348 -0.436485,0.415225 -0.796758,0.415225 -0.314552,0 -0.411042,0.03898 -0.320382,0.129436 0.07283,0.07266 0.627042,0.126577 1.26355,0.122916 0.876217,-0.005 1.294457,-0.06992 1.840857,-0.285555 2.216674,-0.874813 4.450377,-3.26306 5.64596,-6.036588 0.647734,-1.502622 1.119553,-3.270032 1.900994,-7.121026 0.772128,-3.805105 0.910242,-4.289218 0.922046,-3.231928 0.03126,2.799742 1.083149,5.880131 2.656858,7.780413 1.739764,2.100797 4.926035,3.897761 7.772986,4.383737 0.403807,0.06893 1.13717,0.162361 1.629697,0.207625 l 0.895504,0.0823 -0.135372,-0.351691 c -0.450879,-1.171365 -0.372224,-2.614966 0.206919,-3.797731 0.450472,-0.919983 0.715937,-1.127746 0.409078,-0.320159 -0.15175,0.399375 -0.237625,0.934553 -0.237625,1.480901 0,2.272028 1.091551,4.465618 2.833386,5.693993 0.728628,0.513842 0.736533,0.52572 0.516184,0.775488 -0.123077,0.139509 -0.628532,0.827909 -1.123234,1.529778 -2.418773,3.431686 -5.579038,5.535505 -8.955866,5.962007 -1.552354,0.196067 -2.72427,0.02832 -3.915644,-0.560493 -2.086679,-1.031293 -3.204288,-2.98817 -2.806504,-4.914049 0.194674,-0.942518 0.387183,-1.326379 0.944879,-1.884075 0.67508,-0.67508 1.27753,-0.927338 2.214699,-0.927338 1.523188,0 2.525889,0.853945 2.525889,2.151159 0,0.620572 -0.305724,1.053944 -0.743508,1.053944 -0.296456,0 -0.457683,-0.327396 -0.259046,-0.526033 0.238547,-0.238547 0.154113,-0.677421 -0.181047,-0.941058 -0.731444,-0.575354 -1.693987,-0.401828 -2.242454,0.404266 -0.846523,1.244154 -0.161306,2.93475 1.432447,3.534199 1.915298,0.720388 4.159298,-0.388839 4.725634,-2.335921 0.09069,-0.3118 0.159111,-0.988046 0.152043,-1.502769 -0.01655,-1.205417 -0.397566,-2.068647 -1.357065,-3.074581 -1.763474,-1.848818 -4.657713,-2.232133 -7.192435,-0.95257 -1.615961,0.81576 -3.053161,2.547035 -3.749774,4.51704 -0.340367,0.962551 -0.376093,1.207077 -0.380333,2.603252 -0.0039,1.27636 0.04467,1.699648 0.28274,2.465464 2.089392,6.720991 10.124877,8.384248 18.326831,3.793452 2.694098,-1.507939 4.813706,-3.116596 7.027339,-5.333331 4.423727,-4.429927 7.011946,-9.511809 7.879848,-15.471821 0.93567,-6.425388 -0.471217,-14.525208 -3.666633,-21.109781 -0.662357,-1.364873 -0.534717,-1.223195 1.082153,1.201161 3.649355,5.471894 5.366995,11.034635 5.366995,17.38152 0,2.473961 -0.202256,4.402597 -0.678704,6.471842 -1.369658,5.94852 -3.398756,9.638026 -7.63356,13.880096 -2.099733,2.103335 -2.993039,2.839748 -5.379307,4.434537 -3.103627,2.074213 -6.534496,3.567914 -9.791971,4.263138 -1.170194,0.249748 -1.685397,0.288348 -3.759832,0.281691 -2.192318,-0.007 -2.509102,-0.03612 -3.600293,-0.330519 -4.236292,-1.142944 -6.798925,-3.599524 -8.488529,-8.137236 -0.19574,-0.525693 -0.445128,-1.128371 -0.554196,-1.339285 -0.307917,-0.595445 -1.136436,-1.438383 -2.149764,-2.187176 -1.791849,-1.324077 -2.638005,-2.432341 -3.032367,-3.971687 -0.33251,-1.297916 -0.02547,-2.9628 0.759825,-4.11999 l 0.305403,-0.450037 -0.331548,-0.609163 c -0.490932,-0.902005 -0.56065,-0.931566 -1.18459,-0.502284 -1.784454,1.227737 -3.481191,3.707784 -4.172471,6.098721 -0.360705,1.247575 -0.447708,3.603798 -0.188129,5.094876 0.576274,3.310227 1.932856,5.866169 4.444162,8.373261 2.011399,2.008025 4.01684,3.259149 6.801314,4.243109 5.629883,1.98946 12.412964,1.25356 19.40394,-2.105132 1.711872,-0.822438 4.479052,-2.314788 5.239111,-2.82547 0.271201,-0.18222 0.742721,-0.480617 1.047822,-0.663105 l 0.554729,-0.331796 -0.493093,0.450783 c -2.27459,2.07942 -7.378722,5.175 -10.937902,6.63368 -2.250534,0.92235 -4.867176,1.6587 -7.037672,1.98047 -1.606231,0.23812 -4.756951,0.33213 -6.18597,0.18456 z m 14.232395,-0.048 c 0.215186,-0.25928 0.867079,-0.60413 0.962208,-0.509 0.0389,0.0389 0.01375,0.0707 -0.05589,0.0707 -0.06964,0 -0.340887,0.14541 -0.602773,0.32313 -0.261885,0.17772 -0.398481,0.22953 -0.303545,0.11514 z m -10.657473,-3.83599 c -3.826838,-0.51909 -7.075965,-1.785842 -9.122216,-3.556532 l -0.369819,-0.320017 0.61708,0.31064 c 0.85633,0.43108 1.956623,0.620791 2.588023,0.446223 0.931771,-0.257613 1.310347,-0.595714 1.605351,-1.433717 0.07573,-0.215131 0.107377,-0.19157 0.248346,0.18491 0.234336,0.625835 0.213948,1.087567 -0.06818,1.544059 -0.259931,0.420577 -0.879424,0.787556 -1.372692,0.813164 -0.159254,0.0083 0.03277,0.06216 0.426725,0.119772 0.507954,0.07428 0.991971,0.05198 1.664188,-0.07665 1.637516,-0.313347 1.765963,-0.287271 3.880808,0.787839 1.048655,0.533099 2.232307,1.054589 2.63034,1.158859 l 0.723694,0.18959 -1.109458,-4.6e-4 c -0.610202,-2.6e-4 -1.664188,-0.0757 -2.34219,-0.16768 z m 47.031256,-0.0625 c -0.483438,-0.20196 -0.731219,-0.48568 -0.815221,-0.93345 -0.106122,-0.565676 0.187407,-0.985255 0.805747,-1.151757 0.704805,-0.189784 0.993124,-0.617584 0.993124,-1.473567 0,-1.55876 -1.396309,-3.173153 -3.817127,-4.413306 -0.443089,-0.226989 -0.666935,-0.375311 -0.497434,-0.329605 0.517936,0.139664 1.73968,0.792886 2.397216,1.281706 0.993282,0.738418 1.936965,1.915783 2.558547,3.192116 0.353273,0.725398 0.39802,0.93602 0.402067,1.89252 0.0045,1.070703 0.0023,1.078553 -0.432637,1.513773 -0.478097,0.47843 -1.078289,0.63714 -1.594282,0.42157 z m -2.297346,-2.880262 c -0.248308,-0.108077 -0.433507,-0.308967 -0.523911,-0.568299 -0.18135,-0.520221 -0.211114,-0.436376 0.353258,-0.995136 0.426469,-0.422228 0.493093,-0.561412 0.493093,-1.03013 0,-0.679119 -0.169603,-1.135292 -0.59339,-1.596012 l -0.331159,-0.360019 0.431456,0.295587 c 1.181309,0.809303 2.087439,2.060758 2.092476,2.889915 0.0032,0.524703 -0.422521,1.155512 -0.92012,1.363423 -0.508432,0.212436 -0.515159,0.212441 -1.001703,6.71e-4 z m -3.674566,-0.35733 c -0.333944,-0.333944 -0.406855,-0.794479 -0.189945,-1.199778 0.09435,-0.176286 0.259507,-0.238442 0.633594,-0.238442 0.556001,0 0.830783,-0.234592 0.837426,-0.714943 0.011,-0.795532 -1.189836,-1.959107 -2.460745,-2.384386 -0.205158,-0.06865 -0.1035,-0.07924 0.302541,-0.0315 1.356443,0.159473 2.739602,0.986786 3.102714,1.855836 0.347684,0.832124 0.08528,2.112854 -0.548357,2.676394 -0.142425,0.126668 -0.506616,0.258222 -0.809314,0.29234 -0.472522,0.05326 -0.595271,0.01712 -0.867914,-0.255522 z M 68.90781,97.562746 c 0.294744,-0.299622 3.800351,-3.13211 4.312749,-3.484649 0.70195,-0.482954 1.326753,-0.761539 2.590549,-1.155063 0.964214,-0.30024 0.978101,-0.301107 0.623324,-0.03891 -0.199574,0.147496 -0.934087,0.8019 -1.632252,1.454231 -1.362619,1.273165 -2.082841,1.714589 -4.338759,2.659222 -1.728988,0.723989 -1.702317,0.7143 -1.555611,0.565166 z M 85.304704,97.45276 c -0.365999,-0.267624 -1.691341,-0.647026 -2.577301,-0.737795 -0.7077,-0.07251 -2.080379,0.0758 -2.620713,0.283146 -0.133375,0.05118 -0.176612,0.03104 -0.122235,-0.05695 0.04628,-0.07488 0.525108,-0.306197 1.064068,-0.514042 1.757161,-0.677633 3.062145,-0.486676 4.127074,0.60391 0.493535,0.505426 0.565629,0.740922 0.129107,0.421729 z m 1.824403,-0.571445 c -0.06323,-0.08475 -0.218359,-0.392584 -0.344737,-0.684074 -0.274001,-0.631983 -0.857426,-1.174879 -1.485259,-1.382082 -0.284187,-0.09379 -0.881745,-0.130459 -1.582306,-0.0971 l -1.125672,0.05361 0.678003,-0.307929 c 0.786276,-0.357103 2.239662,-0.491729 3.022891,-0.280007 1.10709,0.299268 2.015551,1.341891 1.845164,2.117659 -0.123404,0.561856 -0.751848,0.923383 -1.008084,0.579923 z M 23.296731,96.424708 c -0.468784,-0.193902 -0.827744,-0.711436 -0.89261,-1.286933 l -0.06278,-0.556978 0.472942,0.24112 c 1.416858,0.722355 3.128066,-0.251589 3.547157,-2.018883 l 0.180269,-0.760191 0.01019,0.986185 c 0.01681,1.626533 -0.328021,2.397353 -1.392468,3.112648 -0.611682,0.411043 -1.300267,0.515671 -1.862703,0.283032 z m 13.905195,-1.344674 c -2.715509,-0.938292 -4.39408,-4.433534 -3.969173,-8.264899 0.178872,-1.612884 0.610532,-3.210304 1.210614,-4.480056 0.28037,-0.593252 0.530914,-1.07864 0.556765,-1.07864 0.02585,0 -0.142378,0.52986 -0.373842,1.177467 -0.985823,2.758212 -1.04672,5.587404 -0.171032,7.946003 0.367638,0.990207 1.325304,2.201969 2.117519,2.679356 1.860512,1.121141 4.167109,0.583739 4.167109,-0.970873 0,-0.947502 -0.58775,-1.5311 -1.517444,-1.506723 -0.399183,0.01047 -0.574533,0.09312 -0.84884,0.400127 -0.415662,0.465206 -0.433189,0.731697 -0.07784,1.183456 0.260492,0.331161 0.260892,0.336822 0.0145,0.204959 -0.698846,-0.374012 -0.457104,-1.517018 0.40763,-1.927362 1.317127,-0.625018 2.759567,0.454949 2.760994,2.067179 0.0012,1.305357 -0.783779,2.251878 -2.166008,2.611903 -0.920339,0.239718 -1.31883,0.231809 -2.11096,-0.0419 z m 51.421838,-0.27218 c -0.462685,-0.48363 -1.045192,-0.843027 -1.696395,-1.046645 -0.283122,-0.08853 -0.427758,-0.164669 -0.321413,-0.169205 0.582582,-0.02485 1.46445,0.388712 1.94837,0.913704 0.457368,0.496185 0.58474,0.680601 0.470076,0.680601 -0.02121,0 -0.201502,-0.170305 -0.400638,-0.378455 z M 23.257859,93.582002 c -0.862689,-0.19773 -1.397522,-1.105117 -1.129701,-1.916624 0.142566,-0.431978 0.61868,-0.758105 0.875258,-0.599531 0.255191,0.157716 1.130989,-0.110317 1.543279,-0.472312 0.522103,-0.458413 0.860033,-1.096196 1.077931,-2.034405 l 0.164334,-0.707576 0.09361,1.322488 c 0.16813,2.375189 -0.144713,3.551296 -1.087586,4.088693 -0.634339,0.361545 -1.011178,0.439816 -1.537128,0.319267 z M 73.281541,91.91208 c 0.356232,-0.466775 2.413729,-2.697403 2.882975,-3.125567 2.457023,-2.241917 5.039065,-2.965648 7.526226,-2.109555 0.7885,0.271405 1.667613,0.746512 1.90047,1.027086 0.124116,0.149552 -0.02251,0.166114 -1.012298,0.114342 -3.168316,-0.165724 -7.38416,1.290513 -10.555267,3.645999 -0.508502,0.377714 -0.84245,0.579176 -0.742106,0.447695 z m 24.225648,-2.105555 c -0.135601,-0.106959 -0.523911,-0.326544 -0.862912,-0.487968 l -0.616366,-0.293499 0.577522,-0.0012 c 0.802392,-0.0017 1.156828,0.162176 1.311671,0.606359 0.151715,0.435209 6.74e-4,0.500174 -0.409915,0.176312 z M 22.854592,89.481004 C 22.33228,89.079985 22.246554,88.453745 22.629214,87.834588 l 0.257033,-0.415887 0.314321,0.247245 c 0.48797,0.383837 1.231826,0.33176 1.786002,-0.125039 l 0.451644,-0.372283 -0.1,0.348667 c -0.435632,1.518961 -1.729973,2.542349 -2.483626,1.963713 z m 12.415333,-1.078548 c -0.402407,-0.478235 -0.572614,-1.100664 -0.555164,-2.03018 l 0.01388,-0.739639 0.114768,0.616366 c 0.234486,1.259313 0.397623,1.697999 0.783662,2.10732 0.317124,0.336249 0.352261,0.41978 0.176579,0.41978 -0.120629,0 -0.360808,-0.168141 -0.53373,-0.373647 z m 57.374657,0.02379 c 2.037744,-1.300832 2.987096,-4.081082 2.027304,-5.937115 -0.234045,-0.452593 -0.235434,-0.872201 -0.0039,-1.178315 0.267827,-0.354098 0.227202,-0.547472 -0.115015,-0.547472 -0.369095,0 -0.594673,0.369942 -0.48705,0.798746 0.10526,0.419389 -0.02338,0.392529 -0.253761,-0.05299 -0.276637,-0.534957 -0.230848,-0.940547 0.154925,-1.372302 0.679783,-0.760809 2.04735,-0.556712 2.78951,0.416311 1.662797,2.180038 0.559498,6.236308 -2.056887,7.56213 -0.541462,0.27438 -1.934652,0.652829 -2.424945,0.658717 -0.09802,0.0012 0.0684,-0.155294 0.36982,-0.347715 z m 4.868929,-0.297329 c 0.877938,-0.806864 0.990058,-0.871733 1.350396,-0.781293 0.330968,0.08307 0.487636,0.445377 0.379276,0.877116 -0.09033,0.359907 -0.681408,0.549685 -1.71511,0.550674 l -0.718755,6.87e-4 z M 36.123597,87.550505 c -0.119166,-0.131678 -0.197105,-0.296838 -0.173197,-0.367024 0.02391,-0.07018 0.137966,0.03755 0.253463,0.239414 0.244211,0.426824 0.222195,0.461825 -0.08027,0.12761 z M 23.932202,87.07139 c -0.112208,-0.123989 -0.204015,-0.287961 -0.204015,-0.364382 0,-0.07642 0.374442,-0.35809 0.832094,-0.625931 0.825275,-0.482994 1.226949,-0.836624 1.489512,-1.311352 0.310899,-0.562122 0.135363,0.209058 -0.232007,1.019275 -0.62375,1.375651 -1.352593,1.871339 -1.885584,1.28239 z m 74.326097,-0.951825 c 0.247316,-0.539011 0.505253,-1.049362 0.573193,-1.134112 0.312623,-0.389977 1.079524,0.0047 1.079524,0.555631 0,0.355474 -0.261115,0.585789 -0.953118,0.840689 -0.323288,0.119084 -0.714127,0.329308 -0.868531,0.467165 -0.246709,0.220269 -0.226233,0.131867 0.168932,-0.729373 z m -6.015547,-0.2712 c -0.174899,-0.186451 -0.468603,-0.644102 -0.652676,-1.017004 -0.574372,-1.163585 -1.257092,-1.725824 -2.095644,-1.725824 -0.723631,0 -1.458335,0.493117 -1.561168,1.047822 -0.03689,0.198974 -0.09501,0.151402 -0.301253,-0.246547 -0.159978,-0.308687 -0.478264,-0.631396 -0.851084,-0.862912 -0.533752,-0.331452 -0.699123,-0.369819 -1.593982,-0.369819 -0.880085,0 -1.093123,0.04745 -1.797128,0.400257 -0.895732,0.448893 -1.684796,1.1123 -2.089824,1.757023 l -0.271049,0.431457 0.08129,-0.493093 c 0.302076,-1.83233 2.090846,-3.82023 4.039934,-4.48967 2.581702,-0.886719 5.407746,-0.279028 6.92034,1.488098 0.796765,0.93084 1.221906,1.90847 1.282097,2.948235 0.06154,1.063125 -0.08016,1.470978 -0.511072,1.470978 -0.15443,0 -0.423882,-0.15255 -0.598781,-0.339001 z m -3.465336,-0.447771 c -0.152221,-0.39668 -0.08826,-0.897217 0.141175,-1.104856 0.330575,-0.299167 0.952378,-0.262463 1.185217,0.06996 0.276954,0.395407 0.236731,0.588937 -0.122405,0.588937 -0.371965,0 -0.998449,0.3017 -1.069577,0.515084 -0.03146,0.09437 -0.08156,0.0686 -0.13441,-0.06912 z M 87.189048,84.82451 c -0.375255,-0.532673 -0.751781,-0.810286 -1.42475,-1.050471 -0.373045,-0.133141 -0.40382,-0.165622 -0.161074,-0.169999 0.569351,-0.01027 1.348361,0.478547 1.68901,1.05982 0.403526,0.688566 0.339234,0.788664 -0.103186,0.16065 z M 22.125635,82.968545 c -2.06749,-0.329852 -3.673974,-2.05503 -3.028959,-3.252751 0.208985,-0.388062 0.20687,-0.399235 -0.223941,-1.183001 -0.610784,-1.111184 -0.854536,-2.228311 -0.858187,-3.933106 -0.0024,-1.101194 0.05861,-1.636539 0.273118,-2.398272 0.731165,-2.59639 2.482031,-4.52772 4.824155,-5.321387 1.0223,-0.346423 3.267542,-0.317771 4.204267,0.05365 1.470419,0.583038 2.776772,1.73922 3.438778,3.043475 0.67695,1.3337 0.636315,2.91818 -0.103601,4.039628 l -0.225412,0.341644 0.05446,-0.65665 c 0.232732,-2.806445 -2.398642,-5.324845 -5.33448,-5.105452 -4.331412,0.323684 -6.420988,5.048556 -3.525285,7.971245 0.311701,0.314605 0.705411,0.662805 0.874912,0.773777 0.302005,0.197722 0.298298,0.199232 -0.18491,0.07529 -1.152909,-0.295708 -2.180039,-1.20189 -2.756984,-2.432339 -0.284765,-0.607318 -0.324211,-0.844895 -0.319703,-1.925529 l 0.0051,-1.232732 -0.230686,0.739639 c -0.310357,0.995088 -0.239503,2.893109 0.145508,3.8978 1.233174,3.217983 4.885135,4.645544 7.522855,2.940704 0.40671,-0.26287 0.908193,-0.710857 1.114408,-0.995528 0.471038,-0.650249 0.469741,-0.522818 -0.0085,0.834772 -0.49548,1.406536 -0.642319,1.681162 -1.253302,2.344001 -0.675289,0.732602 -1.364561,1.11806 -2.386463,1.334568 -0.93879,0.198899 -1.046663,0.201389 -2.017189,0.04655 z m 45.611079,-0.841197 c -1.716174,-0.523928 -3.3688,-2.547908 -3.716499,-4.551615 -0.312124,-1.7987 0.604465,-2.636668 2.067588,-1.890239 0.625397,0.319054 1.687546,1.467374 2.087738,2.257113 0.296339,0.584798 0.624979,1.798025 0.516448,1.906555 -0.03024,0.03024 -0.257956,-0.250702 -0.506027,-0.624324 -0.39211,-0.59056 -1.439072,-1.531305 -1.714174,-1.540265 -0.177618,-0.0058 0.901123,1.975264 1.34029,2.461369 0.241881,0.267734 0.739837,0.633591 1.106569,0.813016 0.56435,0.276111 0.788994,0.318445 1.462302,0.275572 0.958346,-0.06102 0.91395,0.07277 -0.210607,0.634723 -0.767568,0.383558 -1.69907,0.482348 -2.433628,0.258095 z m 30.818297,-0.721736 c 0,-0.895424 -0.806092,-2.8347 -1.585999,-3.815554 -1.046613,-1.316279 -3.081438,-2.676452 -4.639297,-3.101125 -0.640509,-0.174603 -1.640523,-0.172619 -2.169704,0.0043 -0.68203,0.228027 -0.638436,0.29396 0.164261,0.248438 0.475929,-0.02699 1.057183,0.03996 1.566049,0.18037 l 0.809214,0.223292 -0.715672,0.09342 c -1.046506,0.1366 -2.047213,0.715897 -2.723353,1.576516 -0.705057,0.897425 -1.224193,1.157331 -2.17437,1.088601 -0.856158,-0.06193 -1.467534,-0.469365 -1.860687,-1.240008 -0.345796,-0.677817 -0.266553,-1.708998 0.191381,-2.490403 0.379633,-0.647794 1.417967,-1.429829 2.398715,-1.806625 0.966018,-0.371136 2.98451,-0.461233 4.08425,-0.182304 1.728511,0.438405 3.409823,1.492295 4.590475,2.877428 0.699355,0.820479 1.73854,2.878985 1.931309,3.8257 0.169541,0.832644 0.317955,2.738599 0.213251,2.738599 -0.0439,0 -0.07982,-0.09929 -0.07982,-0.220647 z m -7.519664,-3.530665 c 0,-0.474725 0.956901,-1.064598 1.690095,-1.041843 l 0.467185,0.0145 -0.570548,0.09641 c -0.705036,0.119135 -1.001435,0.273215 -1.330626,0.691713 -0.140859,0.179073 -0.256106,0.286723 -0.256106,0.239222 z m -66.54018,-1.356058 c -0.290064,-0.09318 -0.707533,-0.306822 -0.927708,-0.474758 -0.451661,-0.344499 -1.003391,-1.29052 -1.129992,-1.937537 l -0.08442,-0.431456 0.268737,0.493093 c 1.032232,1.893989 3.273989,2.258457 4.528696,0.736281 1.305381,-1.583655 0.614476,-3.96948 -1.394919,-4.816915 -0.584313,-0.246426 -1.97178,-0.282866 -2.376931,-0.06243 -0.555717,0.302361 -0.408731,0.02545 0.182943,-0.344653 1.941978,-1.214742 4.133815,-0.376702 4.897312,1.872466 0.356406,1.049926 0.177909,2.370447 -0.469817,3.475707 -0.719248,1.227304 -2.262841,1.885669 -3.493899,1.490198 z m -4.874731,-9.642966 c -0.154672,-0.154672 -0.08519,-0.639554 0.121232,-0.845971 0.233708,-0.233709 0.796099,-0.199736 1.567562,0.09469 l 0.477963,0.182415 -0.473703,0.08887 c -0.260537,0.04888 -0.614303,0.160293 -0.786146,0.247592 -0.467357,0.237422 -0.813251,0.326062 -0.906908,0.232404 z m 49.321113,-0.507737 c -0.239655,-0.674764 -0.943183,-1.552465 -1.457632,-1.818496 -0.244984,-0.126687 -0.754292,-0.182291 -1.682634,-0.183705 -1.150839,-0.0018 -1.397657,-0.03961 -1.820756,-0.279242 -0.489793,-0.27741 -0.610014,-0.426627 -1.427649,-1.771981 -0.345734,-0.568878 -0.734647,-0.944749 -1.849098,-1.787087 -0.776203,-0.586679 -1.548729,-1.213907 -1.716723,-1.393839 l -0.305444,-0.327149 0.55199,0.308333 c 0.74359,0.415356 2.671234,1.168451 4.620006,1.804951 1.700017,0.555252 2.588495,0.948285 3.227696,1.427823 0.215827,0.161917 0.431445,0.294394 0.479152,0.294394 0.159638,0 -0.03579,-1.554221 -0.252974,-2.011907 -0.508956,-1.072547 -1.606408,-1.83012 -3.084055,-2.128931 l -0.739639,-0.14957 0.739639,-0.01015 c 2.47203,-0.03393 4.113018,1.221692 4.689023,3.587857 0.16963,0.696819 0.418996,5.027263 0.289492,5.027263 -0.02824,0 -0.145422,-0.264853 -0.260394,-0.588563 z m -47.39413,-0.599288 c -0.04256,-0.110916 -0.02136,-0.291203 0.04712,-0.400637 0.207881,-0.332211 0.717287,-0.304039 1.284235,0.07102 l 0.523576,0.34637 -0.360993,0.07787 c -0.740467,0.159726 -1.412673,0.117149 -1.493938,-0.09463 z m 49.933099,-4.082077 c -0.131103,-0.539613 -0.95259,-2.261037 -1.450269,-3.039035 -0.941528,-1.471845 -2.33902,-2.658522 -3.639502,-3.090472 -2.283598,-0.75849 -5.586929,-0.282409 -9.286345,1.33836 -0.697185,0.305447 -0.558324,0.161107 0.383024,-0.398138 3.068256,-1.822817 5.298095,-2.60914 7.390836,-2.606281 3.814411,0.0052 6.078587,2.540835 6.740868,7.549019 0.084,0.635232 -0.0055,0.794429 -0.138612,0.246547 z M 50.471151,60.687622 c 0.580196,-0.922928 1.145143,-2.33531 1.585003,-3.962547 0.288169,-1.066066 0.316883,-1.386681 0.320173,-3.574923 0.0034,-2.271257 -0.01481,-2.463338 -0.330347,-3.482915 -0.66142,-2.137175 -1.704576,-3.885759 -3.286557,-5.509071 -0.706451,-0.724908 -0.869563,-0.965497 -0.869004,-1.281779 0.0022,-1.262112 0.917507,-2.423373 1.910047,-2.423373 0.475055,0 1.027057,0.329853 1.299359,0.776442 0.331233,0.54324 0.308978,0.646212 -0.220719,1.021249 -0.525565,0.372111 -0.555819,0.380917 1.26355,-0.367782 2.318974,-0.954294 5.077753,-1.545781 7.233726,-1.550924 0.874951,-0.0021 0.949783,0.01783 0.986186,0.262517 0.08984,0.603853 0.851858,0.603853 0.941696,0 0.03801,-0.25551 0.09625,-0.264749 1.664188,-0.264048 0.893638,3.99e-4 2.179525,0.08351 2.857528,0.184689 1.306619,0.194989 3.509358,0.776127 4.397766,1.160241 0.293239,0.126786 0.661473,0.269039 0.818299,0.316118 0.261901,0.07862 0.272347,0.06512 0.128185,-0.165724 -0.356133,-0.57026 0.377044,-1.427039 1.194861,-1.396294 0.667093,0.02508 1.225197,0.433358 1.588225,1.16186 0.3822,0.766975 0.406307,1.450455 0.116376,3.299491 l -0.202958,1.294368 -0.568728,-0.527389 c -1.680504,-1.558356 -4.263208,-2.789726 -7.036709,-3.354929 -1.518549,-0.309461 -4.666964,-0.339761 -6.383099,-0.06143 -2.202811,0.357261 -4.153292,1.040816 -5.673443,1.988284 -0.946956,0.590212 -2.402362,1.862916 -2.641655,2.310038 -0.12994,0.242795 -0.123722,0.245095 0.160554,0.05938 1.956401,-1.278114 5.974486,-2.685043 8.915432,-3.121731 1.628105,-0.241751 4.36359,-0.241701 5.8546,1.05e-4 2.786788,0.451951 5.005251,1.582467 6.790322,3.460311 0.647001,0.680626 0.605826,0.701253 -0.163885,0.0821 -1.015972,-0.817247 -2.806622,-1.659129 -4.582133,-2.154311 -1.264679,-0.352714 -4.408574,-0.441096 -5.97875,-0.168077 -3.051899,0.530659 -5.808812,1.964298 -7.426656,3.861979 -1.385971,1.625702 -1.947581,3.131268 -2.370668,6.355292 -0.329199,2.508574 -1.23076,4.870514 -2.303836,6.035662 l -0.479456,0.520595 z m 30.052876,-6.927626 c -0.675525,-0.111431 -1.567296,-0.513469 -1.86251,-0.839677 -0.290471,-0.320966 -0.293531,-1.662235 -0.0052,-2.266449 0.121341,-0.25425 0.25195,-0.460137 0.290243,-0.457525 0.03829,0.0026 0.180569,0.180179 0.316169,0.394596 0.291414,0.460793 0.809055,0.782319 1.447855,0.899316 l 0.461669,0.08456 -0.194285,-0.464989 c -0.263242,-0.630027 -0.141741,-1.18982 0.34762,-1.601589 0.353011,-0.29704 0.465962,-0.323586 1.182648,-0.277951 0.724125,0.04611 0.827524,0.08882 1.200654,0.495978 1.101431,1.201869 0.667828,2.907264 -0.93823,3.690137 -0.781839,0.381107 -1.423942,0.479309 -2.246661,0.343598 z m -3.106663,-1.989321 c -0.943904,-1.019504 -1.648141,-2.350342 -2.045914,-3.866287 -0.858841,-3.273112 1.114102,-6.212897 4.316915,-6.432422 1.130064,-0.07746 2.210753,0.101658 3.168251,0.525108 0.362486,0.160309 0.659066,0.316659 0.659066,0.347445 0,0.03079 -0.23576,0.177725 -0.523911,0.326533 -1.625286,0.839334 -2.863133,2.221429 -3.920245,4.377078 -1.205351,2.457933 -1.551645,4.252312 -0.994593,5.153641 0.154761,0.250409 0.254317,0.455289 0.221235,0.455289 -0.03308,0 -0.429443,-0.398874 -0.880804,-0.886385 z m -0.556609,-4.979537 c 0.319725,-1.144056 0.825308,-2.283636 1.276688,-2.877647 0.176631,-0.232446 0.299578,-0.444199 0.273214,-0.470562 -0.113036,-0.113037 -1.302361,0.607548 -1.616803,0.979585 -0.88954,1.052471 -1.141455,2.598614 -0.662821,4.068104 l 0.293046,0.899702 0.08199,-0.811721 c 0.0451,-0.446446 0.204703,-1.250804 0.354681,-1.787461 z M 45.670814,41.437926 c -0.305101,-0.203521 -1.081722,-0.572568 -1.725825,-0.820104 -2.263307,-0.869816 -2.90183,-1.29707 -3.396073,-2.272412 -0.357434,-0.705362 -0.407532,-1.801294 -0.114411,-2.502832 0.282126,-0.675222 0.992182,-1.389379 1.61966,-1.629015 0.613573,-0.234326 1.56417,-0.288371 2.308118,-0.131226 0.460725,0.09732 0.475796,0.09029 0.396489,-0.184909 -0.263829,-0.915515 -0.301587,-1.602373 -0.125807,-2.288596 0.240362,-0.938345 0.490127,-1.253741 1.338427,-1.690127 0.622205,-0.320077 0.837611,-0.36455 1.775501,-0.366565 0.911147,-0.002 1.178126,0.0484 1.823924,0.344041 0.416096,0.190484 0.936145,0.531642 1.155666,0.75813 l 0.399128,0.411796 -0.259444,0.535942 c -0.142695,0.294767 -0.294918,0.713308 -0.338275,0.930089 -0.07206,0.360322 -0.101372,0.38144 -0.341491,0.246069 -0.15488,-0.08732 -0.768506,-0.149097 -1.495394,-0.15056 -1.1003,-0.0022 -1.307443,0.03421 -1.928178,0.339044 -1.166343,0.572775 -1.951764,1.638554 -1.95424,2.65181 -9.75e-4,0.398986 0.289251,1.033825 0.598665,1.309515 0.359836,0.320616 0.333641,0.517443 -0.03658,0.274865 -0.400923,-0.262695 -1.268007,-0.44878 -1.694078,-0.363565 -0.189459,0.03789 -0.483941,0.208364 -0.654405,0.378828 -0.264048,0.264048 -0.309654,0.42151 -0.308046,1.063581 10e-4,0.414506 0.05566,0.836857 0.121386,0.938557 0.09451,0.146247 0.119892,0.119762 0.121385,-0.126662 0.0043,-0.708365 0.757875,-1.229343 1.778217,-1.229343 h 0.551517 l -0.07074,0.843748 c -0.08302,0.99029 0.142474,1.816698 0.709171,2.599001 0.200003,0.276096 0.349426,0.501756 0.332051,0.501466 -0.01738,-2.91e-4 -0.28122,-0.167045 -0.586321,-0.370566 z m 29.986082,0.121994 c 0.637498,-0.903674 0.878898,-1.540871 0.886363,-2.339638 0.0041,-0.440701 -0.04002,-0.932928 -0.0981,-1.093837 -0.105161,-0.291385 -0.102414,-0.292359 0.683247,-0.242332 0.951691,0.0606 1.514199,0.400325 1.653865,0.998851 l 0.0931,0.398955 0.100339,-0.554729 c 0.255895,-1.414731 -0.771787,-2.283708 -2.11678,-1.789887 -1.044063,0.383334 -1.078252,0.377795 -0.597311,-0.09678 0.848008,-0.836779 0.75149,-2.039346 -0.243448,-3.033252 -0.937905,-0.936932 -1.574024,-1.182106 -3.067046,-1.182106 -0.841604,0 -1.308373,0.05096 -1.411478,0.154091 -0.219024,0.219088 -0.351283,0.190819 -0.351283,-0.07508 0,-0.126046 -0.167499,-0.555961 -0.372219,-0.955367 l -0.372219,-0.726192 0.587947,-0.528641 c 1.193849,-1.073426 3.216878,-1.317262 4.687774,-0.565018 0.578534,0.295873 0.754109,0.46729 1.040876,1.016225 0.402433,0.770344 0.466674,1.858724 0.16087,2.725465 -0.182758,0.517991 -0.182092,0.521251 0.09246,0.452849 0.764472,-0.190465 1.349966,-0.216124 1.974259,-0.08652 2.378999,0.493878 3.200054,3.317467 1.468249,5.049272 -0.408356,0.408356 -0.870087,0.700032 -1.564472,0.988278 -1.218923,0.505987 -2.590634,1.187968 -3.080776,1.531686 l -0.36982,0.259341 z M 46.533032,40.759578 c -0.376396,-0.878096 -0.43293,-1.530126 -0.194825,-2.246993 0.455594,-1.371663 1.631621,-2.163989 3.215712,-2.166524 0.474602,-7.59e-4 1.057068,0.05818 1.294369,0.130981 0.237301,0.0728 0.593202,0.168444 0.790892,0.212546 0.355043,0.07921 0.351421,0.0839 -0.296202,0.383948 -1.653975,0.766297 -3.693462,2.548012 -4.284824,3.743262 l -0.268217,0.542114 z m 28.310306,0.07495 C 74.217202,39.532925 72.754416,38.20145 70.910789,37.254997 l -0.955578,-0.490559 0.51738,-0.139316 c 2.072063,-0.557949 3.657718,-0.201971 4.542803,1.019853 0.670349,0.92539 0.767603,2.014871 0.280603,3.143461 l -0.224528,0.520328 z m -22.577999,-0.06271 c -1.095186,-1.095187 0.258699,-2.859899 1.465707,-1.910467 0.392269,0.308559 0.692164,0.85327 0.692164,1.257205 0,0.231184 -0.138911,0.36443 -0.648953,0.622488 -0.802306,0.405929 -1.127137,0.412554 -1.508918,0.03077 z M 68.38184,40.641437 c -0.357084,-0.166244 -0.683586,-0.391758 -0.725561,-0.501142 -0.117365,-0.30585 0.178991,-1.135266 0.481296,-1.347009 0.321142,-0.224936 1.182672,-0.243454 1.45892,-0.03136 0.528649,0.405884 0.641681,1.332083 0.226916,1.859372 -0.316462,0.402316 -0.611807,0.406442 -1.441571,0.02014 z m -32.942701,-0.0081 c 1.189691,-0.400762 2.715869,-0.579448 4.376199,-0.512369 0.881403,0.03561 1.76897,0.115425 1.972371,0.177366 0.24292,0.07398 -0.306974,0.09361 -1.602552,0.05721 -1.80806,-0.05079 -3.184087,0.06108 -4.992564,0.405897 -0.169501,0.03232 -0.05856,-0.02533 0.246546,-0.128107 z M 50.731064,40.19687 c -0.301774,-0.198129 -0.651754,-0.360234 -0.777733,-0.360234 -0.326683,0 -0.182654,-0.16907 0.737303,-0.865496 0.818549,-0.619657 1.233732,-0.807104 0.851028,-0.384222 -0.316171,0.349366 -0.454119,0.97625 -0.333226,1.514303 0.05871,0.26128 0.09877,0.470741 0.08902,0.465468 -0.0097,-0.0053 -0.264621,-0.171691 -0.566395,-0.369819 z m 20.067056,-0.426 c 0.03472,-0.666901 -0.0033,-0.855035 -0.24173,-1.194963 -0.155619,-0.221896 -0.201901,-0.341634 -0.102849,-0.266084 0.09905,0.07555 0.528944,0.391605 0.955317,0.702346 0.426373,0.310741 0.77613,0.60451 0.777238,0.65282 0.0011,0.04831 -0.200451,0.15744 -0.44791,0.242512 -0.247458,0.08507 -0.569479,0.267224 -0.715602,0.404781 l -0.265677,0.250104 z m -10.225665,-0.0249 c -0.696677,-0.764624 -1.064492,-1.780258 -0.921248,-2.543813 0.09788,-0.521749 0.871559,-1.5568 1.163673,-1.5568 0.232617,0 0.886914,0.62922 1.113202,1.070536 0.363275,0.708473 0.02216,2.051895 -0.769372,3.030077 l -0.275757,0.340781 z m -5.533321,-0.156939 c -0.43413,-1.048082 -1.227103,-1.714603 -2.060424,-1.731858 -0.292387,-0.0061 -0.242981,-0.0531 0.335041,-0.319066 0.986591,-0.453953 3.024643,-1.153111 3.361331,-1.153111 0.159359,0 0.397423,0.08627 0.529032,0.19171 0.231152,0.185191 0.230133,0.187287 -0.02997,0.06164 -0.692536,-0.334548 -1.531068,0.04665 -1.970076,0.895598 -0.224365,0.433875 -0.248771,1.454641 -0.04736,1.9808 0.184913,0.483057 0.07937,0.549747 -0.117573,0.07429 z m 11.647255,0.185978 c 0.05413,-0.135601 0.122037,-0.551648 0.150908,-0.924549 0.0416,-0.537298 -0.0067,-0.792919 -0.232866,-1.231737 -0.492831,-0.956333 -1.503539,-1.384425 -2.168664,-0.918554 -0.150686,0.105545 -0.273975,0.142186 -0.273975,0.08142 0,-0.161413 0.574338,-0.396597 0.968524,-0.396597 0.365114,0 2.925668,0.811078 3.839938,1.216334 l 0.553921,0.245529 -0.567317,0.0087 c -0.770382,0.01182 -1.314866,0.400074 -1.777426,1.267411 -0.381625,0.715578 -0.671358,1.098738 -0.493043,0.652031 z M 56.112028,39.519476 c -0.65033,-0.650331 -0.532945,-1.596914 0.243737,-1.965474 0.92043,-0.436772 1.622985,0.210645 1.792677,1.651983 0.02787,0.236722 -0.04932,0.324816 -0.396856,0.452896 -0.723239,0.266545 -1.281034,0.219118 -1.639558,-0.139405 z m 8.419583,0.230825 c -0.704463,-0.25481 -0.985981,-0.454655 -0.983478,-0.698156 0.0042,-0.411254 0.433721,-1.257471 0.751021,-1.479717 0.717266,-0.502392 1.673223,-0.04693 1.794174,0.854838 0.05994,0.44686 0.02093,0.550023 -0.361179,0.955174 -0.41305,0.437961 -0.734459,0.536445 -1.200538,0.367861 z m -5.217673,-0.946058 c -0.307974,-0.470029 -0.764567,-1.673979 -1.001477,-2.640713 -0.292082,-1.191866 -0.219383,-3.003642 0.159292,-3.969819 0.271478,-0.692666 0.881006,-1.568302 1.86857,-2.684348 l 0.554729,-0.6269 0.718001,0.829011 c 1.6079,1.856499 1.972066,2.704141 1.966764,4.577881 -0.0042,1.486943 -0.287205,2.736144 -0.890678,3.931617 -0.208997,0.41402 -0.402733,0.752764 -0.430526,0.752764 -0.02779,0 0.05622,-0.303715 0.186684,-0.674923 0.335272,-0.953908 0.312769,-2.057808 -0.05786,-2.838363 -0.257515,-0.542336 -1.315545,-1.915254 -1.545623,-2.005628 -0.115614,-0.04541 -1.280268,1.411877 -1.549171,1.938421 -0.373356,0.731079 -0.383494,1.786304 -0.02701,2.81138 0.170687,0.490812 0.294543,0.892386 0.275235,0.892386 -0.01931,0 -0.121428,-0.131744 -0.226934,-0.292766 z M 45.86558,36.442017 c -0.136385,-0.543401 0.138539,-1.224692 0.704857,-1.746705 0.419502,-0.386684 0.687208,-0.518313 1.29889,-0.638654 1.103359,-0.217073 1.846915,0.01996 2.96132,0.944007 0.46851,0.388482 0.839133,0.720873 0.823608,0.738645 -0.01552,0.01777 -0.300297,-0.09317 -0.632825,-0.246546 -0.488036,-0.225098 -0.818495,-0.278375 -1.714057,-0.276344 -1.024433,0.0023 -1.16899,0.0346 -1.886251,0.421189 -0.427235,0.23027 -0.909042,0.575844 -1.070682,0.767942 -0.359259,0.426956 -0.386342,0.428992 -0.48486,0.03647 z m 29.329162,-0.13645 c -0.832967,-0.718007 -1.625355,-1.062062 -2.588737,-1.124031 -0.823421,-0.05297 -1.330223,0.05572 -2.465464,0.52874 -0.1356,0.0565 -0.05239,-0.05967 0.18491,-0.258162 0.237301,-0.19849 0.570139,-0.491676 0.739639,-0.651525 1.351853,-1.274879 3.815302,-0.943714 4.63375,0.622921 0.184454,0.353073 0.236689,1.154909 0.08145,1.250291 -0.05085,0.03124 -0.314347,-0.134463 -0.585548,-0.368234 z M 52.738938,35.465986 c -0.593034,-0.363892 -1.151011,-1.342464 -1.151011,-2.018627 0,-1.839363 1.902783,-3.349292 4.220711,-3.349292 0.749652,0 1.860716,0.220468 1.788486,0.354888 -0.876326,1.630858 -1.026354,3.120375 -0.463495,4.601699 0.322602,0.849019 0.22776,0.893075 -0.160736,0.07467 -0.329113,-0.693312 -0.751853,-1.151353 -1.409406,-1.527097 -0.594533,-0.339734 -0.475663,-0.915418 0.189019,-0.915418 0.359422,0 0.310955,-0.207411 -0.124424,-0.532468 -0.641701,-0.479099 -1.574691,0.126289 -1.574691,1.021767 0,0.775984 0.572067,1.328176 1.571733,1.517127 0.423751,0.0801 0.769856,0.17454 0.769121,0.209877 -0.003,0.145623 -1.954975,0.787927 -2.525764,0.831124 -0.497071,0.03762 -0.715689,-0.0143 -1.129543,-0.268245 z m 11.875389,-0.441571 c 0.278139,-0.688601 0.308234,-0.908467 0.259694,-1.897238 -0.04132,-0.841697 -0.136454,-1.314838 -0.384548,-1.912505 -0.231733,-0.558252 -0.290925,-0.832868 -0.199283,-0.924549 0.0717,-0.07173 0.598296,-0.149946 1.170213,-0.173811 2.563466,-0.10697 4.549982,1.312836 4.554949,3.255522 0.0016,0.615861 -0.05946,0.842484 -0.342019,1.269852 -0.189164,0.286113 -0.522001,0.628825 -0.739639,0.761581 -0.700977,0.427589 -1.109619,0.42939 -2.343823,0.01033 -0.623541,-0.211717 -1.244657,-0.386551 -1.380257,-0.388519 -0.398788,-0.0058 0.01676,-0.180432 0.859365,-0.36117 0.954936,-0.204833 1.544462,-0.746145 1.544462,-1.418149 0,-0.580604 -0.165526,-0.880543 -0.613898,-1.112406 -0.476858,-0.246593 -0.783048,-0.234938 -1.031184,0.03925 -0.276755,0.305811 -0.262184,0.35452 0.173445,0.579793 0.553668,0.286313 0.449131,0.652523 -0.298956,1.047284 -0.493842,0.260598 -0.663659,0.445685 -0.963554,1.0502 -0.504835,1.017626 -0.642,1.107979 -0.264967,0.174539 z m -13.59296,-5.063334 c -0.667916,-0.679993 -1.791945,-1.295473 -2.624783,-1.437242 l -0.54097,-0.09209 0.510507,-0.461212 c 0.899941,-0.813043 1.737718,-0.574436 2.417745,0.688596 0.134068,0.249009 0.293923,0.452744 0.355232,0.452744 0.219248,0 -0.02821,-1.003505 -0.35221,-1.428288 -0.181592,-0.23808 -0.299401,-0.513051 -0.261797,-0.611046 0.09537,-0.248519 0.821759,-0.671661 1.153968,-0.672215 0.477072,-7.97e-4 1.537219,0.469273 1.941013,0.860646 l 0.387715,0.375789 -0.0524,-0.724472 c -0.06084,-0.841085 0.07546,-1.166751 0.629785,-1.504745 0.501669,-0.30589 1.07733,-0.304966 1.680397,0.0027 0.481698,0.245744 0.992927,0.781491 0.992927,1.040546 0,0.169795 0.829401,1.92145 0.909799,1.92145 0.03108,0 6.6e-5,-0.204436 -0.06893,-0.454301 -0.358435,-1.298146 0.62653,-3.00875 2.16197,-3.754725 0.667354,-0.324225 0.951772,-0.264767 1.806855,0.37773 1.172659,0.88112 1.736128,2.077885 1.512007,3.211388 -0.0665,0.336329 -0.08498,0.589301 -0.04107,0.562161 0.09787,-0.06049 0.526643,-1.029654 0.807088,-1.82429 0.257158,-0.728653 0.844211,-1.207074 1.583391,-1.29039 1.099039,-0.123878 1.755145,0.584954 1.655348,1.788374 l -0.05567,0.671264 0.381075,-0.439081 c 0.45441,-0.523578 1.450064,-0.890221 2.090974,-0.769985 0.229546,0.04306 0.569294,0.219107 0.754995,0.391209 l 0.337638,0.312913 -0.255105,0.271547 c -0.397382,0.422994 -0.652017,1.131027 -0.526132,1.462954 0.10142,0.267417 0.120667,0.253009 0.320422,-0.239862 0.466079,-1.149998 1.430787,-1.461037 2.385805,-0.769226 0.281373,0.203827 0.511588,0.418178 0.511588,0.476337 0,0.05816 -0.255164,0.140719 -0.567031,0.183465 -0.82931,0.113669 -1.98408,0.775572 -2.500775,1.433418 l -0.439109,0.559065 -0.765587,-0.513382 c -1.003627,-0.673005 -2.005911,-1.044432 -3.029889,-1.122818 -0.989881,-0.07578 -1.814714,0.124962 -2.200402,0.535508 l -0.274774,0.292484 -0.515019,-0.706697 c -0.28326,-0.388683 -0.6135,-0.787954 -0.733865,-0.887268 -0.120366,-0.09931 -0.550946,-0.586993 -0.956845,-1.08373 l -0.737998,-0.903159 -0.339149,0.529001 c -0.186532,0.29095 -0.715598,0.945048 -1.175703,1.45355 -0.460104,0.508502 -0.946293,1.071513 -1.08042,1.251137 l -0.243867,0.326589 -0.52112,-0.367319 c -1.233182,-0.869227 -3.696858,-0.484327 -5.318175,0.830859 l -0.504923,0.409585 z m 0.763114,-1.896871 c 0.437685,-0.376411 1.04416,-0.403383 1.688115,-0.07508 0.537273,0.273917 0.577893,0.175259 0.141415,-0.343466 -0.414552,-0.492667 -1.060295,-0.675724 -1.59522,-0.452218 -0.482372,0.201547 -0.795822,0.616026 -0.711043,0.94022 0.07718,0.295143 0.0478,0.299423 0.476733,-0.06946 z m 18.304507,-0.220177 c -0.150114,-0.39483 -0.543087,-0.659803 -1.140282,-0.768869 -0.411226,-0.0751 -0.503369,-0.03542 -1.017004,0.438037 -0.658966,0.607414 -0.736077,0.836569 -0.164169,0.48787 0.553405,-0.337418 1.305959,-0.31876 1.830867,0.04539 0.482741,0.334899 0.666113,0.259235 0.490588,-0.20243 z m -17.49232,-1.729362 c -0.891133,-0.907998 -1.232826,-2.328279 -0.859732,-3.573556 0.216147,-0.721436 1.310869,-1.849599 2.235257,-2.303541 0.630002,-0.309376 2.625432,-0.826595 2.74144,-0.710587 0.01844,0.01844 -0.07614,0.358396 -0.210188,0.755452 -0.277493,0.821964 -0.231552,1.052961 0.07918,0.398137 0.502701,-1.059363 2.382408,-2.157627 3.875701,-2.264472 1.615597,-0.115595 3.624277,0.808377 4.427591,2.036646 0.41023,0.627244 0.519175,0.465698 0.200421,-0.297189 -0.258605,-0.618928 -0.242931,-0.651627 0.277364,-0.578642 1.444789,0.202668 2.745579,0.778828 3.530532,1.563781 1.491994,1.491994 1.474085,3.588098 -0.04332,5.069668 l -0.500313,0.4885 0.07253,-0.550136 C 68.565475,25.069085 67.6965,24.06708 66.444731,23.867455 66.172218,23.823996 65.735358,23.64325 65.473932,23.465797 64.858684,23.048174 63.661515,22.941384 63.063251,23.250759 62.672542,23.452802 62.65567,23.44979 62.06884,23.073223 61.740513,22.862536 61.32679,22.545064 61.149455,22.367729 l -0.322426,-0.322427 -0.335808,0.310039 c -0.184694,0.170521 -0.606573,0.49229 -0.937509,0.715042 -0.598287,0.402705 -0.603797,0.403767 -0.970784,0.186982 -0.704417,-0.416109 -1.725811,-0.26659 -2.925063,0.428194 -0.236243,0.136866 -0.56908,0.249761 -0.739639,0.250876 -0.472208,0.0031 -1.253047,0.502319 -1.531566,0.979208 -0.164732,0.282061 -0.249013,0.647114 -0.249013,1.078572 0,0.358711 -0.0043,0.652202 -0.0096,0.652202 -0.0053,0 -0.244395,-0.239286 -0.531424,-0.531746 z m 4.084131,-0.909519 -0.63933,-0.639989 0.524159,-0.253741 c 0.906232,-0.4387 1.90945,-0.286904 1.409306,0.21324 -0.08056,0.08056 -0.260846,0.410623 -0.400637,0.733476 l -0.254167,0.587004 z m 7.480993,0.500642 c 0,-0.234322 -0.432134,-1.076452 -0.679108,-1.323425 -0.176654,-0.176654 -0.165321,-0.201357 0.125909,-0.274451 0.438544,-0.110068 1.119114,0.01567 1.529172,0.282514 l 0.341108,0.221978 -0.658541,0.63602 c -0.364739,0.352266 -0.65854,0.556315 -0.65854,0.457364 z m -7.546355,-6.794769 c -0.710535,-0.814573 -0.613236,-2.074344 0.22516,-2.915241 0.406892,-0.408105 1.372313,-0.880834 2.049659,-1.003636 l 0.460667,-0.08352 -0.244939,-0.311389 c -0.50006,-0.635724 -0.262973,-1.411633 0.800671,-2.620332 0.387813,-0.440701 0.746711,-0.910166 0.797551,-1.043255 0.0875,-0.229063 0.100912,-0.225773 0.251213,0.06164 0.08733,0.166989 0.448042,0.636453 0.80159,1.043255 0.725072,0.834288 1.048778,1.394656 1.048778,1.815547 0,0.273978 -0.291844,0.810765 -0.52896,0.972911 -0.06149,0.04205 0.101717,0.116181 0.362674,0.164743 1.721009,0.320264 3.05725,1.72481 2.823966,2.968318 -0.04331,0.230886 -0.223252,0.591519 -0.399862,0.801408 l -0.321108,0.381615 -0.506081,-0.482107 c -1.069776,-1.019102 -2.242632,-1.527191 -3.526273,-1.527604 -1.243643,-4e-4 -2.699396,0.664338 -3.412728,1.558348 -0.399376,0.500533 -0.428497,0.509897 -0.681978,0.219301 z" style="fill: inherit;"/></g></svg>