<?xml version="1.0" encoding="UTF-8"?>
<svg xmlns="http://www.w3.org/2000/svg" xmlns:xlink="http://www.w3.org/1999/xlink" width="129px" height="150px" viewBox="0 0 129 149" version="1.1">
<g id="surface1">
<path style=" stroke:none;fill-rule:evenodd;fill:rgb(97.647059%,74.901962%,52.156866%);fill-opacity:1;" d="M 37.367188 94.179688 C 25.878906 78.367188 22.480469 54.878906 34.5625 44.453125 C 31.785156 34.726562 21.140625 31.597656 12.40625 34.472656 C -0.226562 38.644531 -1.152344 48.527344 0.894531 58.773438 C 2.792969 68.265625 10.625 97.222656 14.039062 104.4375 C 15.546875 107.640625 17.425781 109.335938 19.617188 109.675781 C 22.710938 110.160156 26.4375 107.941406 30.714844 103.417969 Z M 45.378906 58.191406 C 52.289062 60.617188 53.09375 63.488281 54.371094 69.769531 C 53.578125 69.078125 52.847656 68.363281 52.179688 67.625 C 52.070312 67.710938 51.945312 67.78125 51.824219 67.84375 C 50.328125 68.617188 48.414062 67.902344 47.535156 66.242188 C 46.792969 64.824219 47.0625 63.1875 48.085938 62.253906 C 47.171875 60.894531 46.304688 59.535156 45.378906 58.191406 Z M 68.148438 12.441406 L 61.289062 12.441406 C 61.277344 11.457031 60.609375 10.402344 59.804688 9.796875 C 62.253906 9.226562 63.886719 8.015625 64.847656 5.929688 C 65.738281 8.378906 67.683594 9.144531 69.671875 9.796875 C 68.695312 10.367188 68.160156 11.53125 68.148438 12.441406 Z M 84.105469 58.191406 C 77.199219 60.617188 76.394531 63.488281 75.117188 69.769531 C 75.90625 69.078125 76.640625 68.363281 77.308594 67.625 C 77.417969 67.710938 77.539062 67.78125 77.664062 67.84375 C 79.160156 68.617188 81.074219 67.902344 81.949219 66.242188 C 82.695312 64.824219 82.425781 63.1875 81.402344 62.253906 C 82.304688 60.894531 83.179688 59.535156 84.105469 58.191406 Z M 40.144531 39.382812 C 55.917969 32.898438 72.386719 32.628906 89.625 39.382812 C 101.015625 24.214844 60.15625 17.726562 75.25 8.914062 C 71.097656 7.542969 66.773438 5.117188 64.90625 0 C 62.898438 4.367188 59.707031 7.734375 54.601562 8.914062 C 69.269531 19.8125 27.839844 22.53125 40.144531 39.382812 Z M 91.621094 92.105469 C 103.109375 76.292969 106.507812 52.808594 94.425781 42.378906 C 97.203125 32.65625 107.847656 29.527344 116.582031 32.398438 C 129.214844 36.558594 130.140625 46.441406 128.09375 56.699219 C 126.195312 66.195312 118.363281 95.148438 114.949219 102.363281 C 113.441406 105.566406 111.5625 107.261719 109.371094 107.601562 C 106.277344 108.089844 102.550781 105.867188 98.273438 101.347656 Z M 88.734375 46.417969 C 70.109375 40.535156 54.113281 41.070312 41.53125 46.164062 C 32.394531 52.796875 31.507812 63.1875 35.769531 77.242188 C 38.691406 86.867188 44.003906 90.070312 46.746094 97.464844 C 54.589844 118.613281 50.496094 154.664062 99.773438 148.261719 C 105.316406 147.546875 110.429688 146.113281 115.109375 143.945312 C 127.277344 136.59375 110.40625 135.832031 105.632812 135.566406 C 79.34375 134.050781 77.566406 125.574219 83.644531 102.472656 L 86.105469 93.125 C 94.851562 71.25 98.101562 53.789062 88.734375 46.417969 Z M 88.734375 46.417969 "/>
</g>
</svg>
